<svg width="41" height="40" viewBox="0 0 41 40" fill="none" xmlns="http://www.w3.org/2000/svg">
<path d="M27.0913 3.21438L8.7901 12.5069L1.51245 8.95687L19.491 0.151875C19.8944 -0.050625 20.3784 -0.050625 20.8019 0.151875L27.0913 3.21438Z" fill="#83A5FD"/>
<path d="M38.8007 8.95691L20.1768 18.1069L13.2016 14.6994L12.1958 14.1919L30.5172 4.89941L31.5256 5.40691L38.8007 8.95691Z" fill="#83A5FD"/>
<path d="M18.6844 20.7444L18.6643 39.9994L0.824312 30.7669C0.322666 30.5044 0 29.9769 0 29.4094V11.5944L7.55998 15.2869V21.7794C7.55998 22.6119 8.24565 23.3019 9.07248 23.3019C9.89932 23.3019 10.585 22.6119 10.585 21.7794V16.7894L11.5933 17.2769L18.6844 20.7444Z" fill="#0000FE"/>
<path d="M40.3132 11.6144L21.7094 20.7244L21.6893 39.9794L40.3333 30.3244L40.3132 11.6144Z" fill="#0000FE"/>
</svg>
