<svg width="30" height="40" viewBox="0 0 30 40" fill="none" xmlns="http://www.w3.org/2000/svg">
<path d="M4.16992 13.0524V9.16504C4.16992 6.40747 6.41235 4.16504 9.16992 4.16504C11.9275 4.16504 14.1699 6.40747 14.1699 9.16504V12.5C14.3451 12.5 14.5074 12.5403 14.6771 12.5574C15.9052 11.2225 16.6699 9.4574 16.6699 7.5C16.6699 3.35754 13.3124 0 9.16992 0C5.02747 0 1.66992 3.35754 1.66992 7.5C1.66992 9.71252 2.64771 11.6803 4.16992 13.0524Z" fill="#83A5FD"/>
<path d="M26.6699 18.3325C25.2899 18.3325 24.1699 19.4525 24.1699 20.8325V21.25C24.1699 21.4801 23.9826 21.6675 23.7525 21.6675C23.5224 21.6675 23.335 21.4801 23.335 21.25V19.1675C23.335 17.7875 22.215 16.6675 20.835 16.6675C19.455 16.6675 18.335 17.7875 18.335 19.1675V21.25C18.335 21.4801 18.1476 21.6675 17.9175 21.6675C17.6874 21.6675 17.5 21.4801 17.5 21.25V17.5C17.5 16.12 16.38 15 15 15C13.62 15 12.5 16.12 12.5 17.5V21.25C12.5 21.4801 12.3126 21.6675 12.0825 21.6675C11.8524 21.6675 11.665 21.4801 11.665 21.25V9.16748C11.665 7.78748 10.545 6.66748 9.16504 6.66748C7.78504 6.66748 6.66504 7.78748 6.66504 9.16748V24.1675C6.20484 24.1675 5.83252 23.7952 5.83252 23.335V20H5.00977C2.26746 20 -0.00243944 22.2125 1.96757e-06 24.9548C0.012209 33.7573 6.41968 40 10.3601 40H20.8374C25.4401 40 29.1699 36.2701 29.1699 31.6675V20.835C29.1699 19.4525 28.0524 18.3325 26.6699 18.3325Z" fill="#0000FE"/>
</svg>
