<svg width="40" height="40" viewBox="0 0 40 40" fill="none" xmlns="http://www.w3.org/2000/svg">
<path d="M24 15.8325H1.8325C0.819999 15.8325 0 16.655 0 17.6675V24C0 25.0125 0.819999 25.8325 1.8325 25.8325H24C25.0125 25.8325 25.8325 25.0125 25.8325 24V17.6675C25.8325 16.655 25.0125 15.8325 24 15.8325Z" fill="#83A5FD"/>
<path d="M24 0H1.8325C0.819999 0 0 0.819999 0 1.8325V11.5C0 12.5125 0.819999 13.3325 1.8325 13.3325H24C25.0125 13.3325 25.8325 12.5125 25.8325 11.5V1.8325C25.8325 0.819999 25.0125 0 24 0Z" fill="#0000FE"/>
<path d="M38.1675 0H30.1675C29.155 0 28.335 0.819999 28.335 1.8325V13.3325V15.8325V24C28.335 25.0125 29.155 25.8325 30.1675 25.8325H38.1675C39.18 25.8325 40 25.0125 40 24V1.8325C40 0.819999 39.18 0 38.1675 0Z" fill="#83A5FD"/>
<path d="M25.8325 28.3325H1.8325C0.82 28.3325 0 29.155 0 30.1675V38.1675C0 39.18 0.82 40 1.8325 40H38.165C39.18 40 40 39.18 40 38.1675V30.1675C40 29.155 39.18 28.335 38.1675 28.335H28.335H25.8325V28.3325Z" fill="#0000FE"/>
</svg>
