<svg width="180" height="29" viewBox="0 0 180 29" fill="none" xmlns="http://www.w3.org/2000/svg">
<g clip-path="url(#clip0)">
<path d="M23.7092 9.85437C23.5415 9.74175 23.3178 9.68544 23.15 9.74175C22.0876 9.62913 21.0811 9.62913 20.0186 9.68544H19.9627H19.9068C19.4035 9.68544 18.8443 9.68544 18.2852 9.68544L13.8676 9.57282C12.8052 9.51651 11.6868 9.57282 10.5685 9.57282C9.72972 9.57282 8.94687 9.62913 8.1081 9.62913C7.26933 9.62913 5.20036 9.62913 4.02608 9.68544C3.35507 9.68544 3.01956 9.68544 3.01956 9.68544C2.85181 9.68544 2.68405 9.91068 2.68405 10.0796C2.68405 10.1922 2.73997 10.2485 2.90772 10.3049C3.01956 10.3049 3.74649 10.3049 5.08852 10.3049H6.43056C6.76606 10.3049 6.98974 10.3049 7.04565 10.3049C8.05218 10.1922 9.0587 10.1922 10.0093 10.1922H10.0652C10.6803 10.1922 11.3513 10.1922 12.0224 10.1922C12.1342 10.2485 12.3019 10.1922 12.4138 10.1922C12.4697 10.1922 12.5256 10.1922 12.5815 10.1359C12.8611 10.1359 13.0289 10.1359 13.1966 10.1359C13.3644 10.1359 13.5321 10.1359 13.6999 10.1922C13.8676 10.1359 13.9795 10.1922 14.0913 10.1922C14.1472 10.1922 14.2032 10.1922 14.2591 10.1922C15.5452 10.1359 16.9431 10.1922 18.6766 10.3612L19.5154 10.4738C20.2423 10.4175 21.0252 10.4738 21.7521 10.5301C22.3113 10.5864 22.8145 10.5864 23.3178 10.5864H23.3737L23.6533 10.3612C23.877 10.1922 23.821 9.96699 23.7092 9.85437Z" fill="#8D98C1" fill-opacity="0.5"/>
<path d="M16.384 19.3146V17.5126C16.3281 17.2311 16.3281 16.9495 16.3281 16.668C16.3281 16.3301 16.3281 15.9922 16.2721 15.6544C16.2721 15.2039 16.1603 14.6971 16.1044 14.2466L16.0485 13.9088V13.8524C15.9925 13.7961 15.9366 13.6835 15.9366 13.5709C15.9366 13.4583 15.8807 13.402 15.8248 13.2893C15.713 13.0641 15.5452 12.8952 15.3774 12.6699C15.3215 12.6136 15.2656 12.6136 15.2656 12.5573L15.2097 12.501L15.0979 12.5573H15.0419C14.8742 12.4447 14.7623 12.3884 14.5946 12.3321C14.5387 12.2757 14.4828 12.2757 14.4268 12.2757V12.2194H14.3709L13.9795 12.1631H13.9236L13.8677 12.2194C13.8677 12.2194 13.8677 12.2194 13.7558 12.2194C13.6999 12.2194 13.6999 12.2194 13.644 12.1631H13.5881C13.5881 12.1631 13.5881 12.1631 13.5322 12.1631L13.3644 12.1068V12.1631C13.3085 12.1631 13.2526 12.1631 13.1966 12.2194H13.1407H12.8611H12.6375V12.3321C12.5256 12.3321 12.4697 12.3884 12.4138 12.3884C12.3579 12.3884 12.302 12.4447 12.246 12.4447H12.1901H12.1342V12.501C12.0783 12.5573 11.9664 12.6136 11.9105 12.6136L11.7987 12.6699L11.8546 12.7262C11.8546 12.7262 11.7987 12.7262 11.7987 12.7825H11.7428H11.6309V12.8952L11.575 12.8388L11.5191 12.8952C11.4632 13.0078 11.3514 13.1204 11.2395 13.233C11.1277 13.3456 11.0158 13.5146 10.904 13.6272L10.8481 13.6835V13.7398C10.8481 13.7398 10.7922 13.7961 10.7363 13.8524C10.6803 13.9088 10.6803 13.9651 10.6803 14.0214V14.0777L10.6244 14.1903C10.6244 14.2466 10.6244 14.2466 10.6244 14.2466L10.5685 14.3029H10.6244C10.6244 14.3592 10.6244 14.4155 10.6244 14.4155V14.4719H10.5685V14.5282C10.5685 14.6408 10.5685 14.7534 10.5685 14.866C10.5685 14.9787 10.5126 15.0913 10.5685 15.2039C10.5126 15.2602 10.5126 15.3728 10.5685 15.4291V15.4855L10.5126 15.5418L10.5685 15.5981C10.6244 15.6544 10.5685 15.767 10.5685 15.8233C10.5685 15.8796 10.5126 15.9922 10.5685 16.1049V16.1612C10.5685 16.2175 10.5685 16.2738 10.5685 16.2738L10.5126 16.3864V16.4427L10.5685 16.499C10.5685 16.5554 10.5685 16.6117 10.5685 16.668C10.5685 16.7243 10.5685 16.7806 10.5685 16.7806L10.5126 16.8932L10.5685 16.9495C10.5685 17.0058 10.5685 17.0622 10.6244 17.1185C10.6244 17.1185 10.6244 17.1185 10.6244 17.1748H10.5126L10.5685 17.2874C10.5685 17.2874 10.5685 17.2874 10.5685 17.3437C10.5685 17.4 10.5685 17.4563 10.5685 17.5126C10.5126 17.5689 10.5685 17.6816 10.5685 17.7379V17.7942C10.4567 17.9068 10.5126 18.0194 10.5685 18.0757C10.5126 18.1321 10.5126 18.1884 10.5685 18.2447L10.4567 18.301L10.5685 18.4136C10.5685 18.4136 10.5685 18.4699 10.5685 18.5262L10.6244 18.5825H10.5685L10.6244 18.6952C10.6244 18.7515 10.6244 18.8078 10.6803 18.8641V18.9204L10.6244 18.9767L10.6803 19.033C10.7363 19.0893 10.6803 19.1456 10.6803 19.2583C10.6803 19.3709 10.6244 19.4835 10.6803 19.5961L10.6244 19.6524L10.7363 19.7088C10.7363 19.7651 10.6803 19.8214 10.7363 19.934C10.7363 19.9903 10.7363 20.0466 10.7363 20.1029C10.7363 20.2156 10.7363 20.3282 10.7363 20.4408V20.5534C10.7363 20.6097 10.7363 20.6097 10.7363 20.666H10.6803V20.7223C10.7363 20.835 10.7363 20.8913 10.7363 21.0039C10.7363 21.2291 10.7363 21.4544 10.904 21.6233L10.9599 21.6796H11.0158C11.1277 21.6233 11.1836 21.5107 11.1836 21.3981V21.3418C11.1277 21.1728 11.1277 20.8913 11.1836 20.666C11.1836 20.6097 11.1836 20.5534 11.1836 20.4971V20.4408C11.1277 20.3845 11.1277 20.2719 11.1836 20.2156C11.1836 20.1592 11.1836 20.0466 11.1836 19.934C11.2395 19.5398 11.1836 19.033 11.1836 18.6388C11.1836 18.4699 11.1836 18.301 11.1836 18.1321C11.1836 17.9068 11.1836 17.7379 11.1836 17.5126C11.1836 17.3437 11.1836 17.1185 11.1836 16.9495C11.2395 16.7243 11.2395 16.5554 11.2395 16.3864C11.2395 16.2738 11.2395 16.2175 11.2395 16.1049C11.2954 16.0486 11.2954 15.9922 11.2954 15.9359C11.2954 15.8796 11.2954 15.767 11.2954 15.7107C11.2954 15.6544 11.2954 15.5981 11.2954 15.5418C11.2954 15.4855 11.2954 15.4291 11.2954 15.3728C11.2954 15.3165 11.3514 15.2602 11.2954 15.1476C11.3514 14.9787 11.4073 14.8097 11.4073 14.6408V14.5845C11.4073 14.5282 11.4073 14.5282 11.3514 14.4719C11.3514 14.4155 11.4073 14.3029 11.4632 14.2466C11.5191 14.134 11.575 14.0777 11.575 13.9088C11.6309 13.8524 11.6869 13.8524 11.6869 13.7398C11.6869 13.7398 11.6869 13.7398 11.6869 13.6835C11.7428 13.6272 11.7987 13.5709 11.8546 13.5146C11.9105 13.402 11.9665 13.3456 12.0783 13.3456H12.1342V13.2893C12.1342 13.233 12.1901 13.1767 12.302 13.1204C12.3579 13.0641 12.4138 13.0641 12.4697 12.9515C12.5256 12.9515 12.5815 12.9515 12.5815 12.8952C12.6934 12.8952 12.7493 12.8389 12.8052 12.7825C12.9171 12.7262 12.9171 12.6699 12.973 12.7262H13.0289L13.0848 12.6699C13.0848 12.6699 13.1407 12.6699 13.1966 12.6136H13.2526C13.3085 12.6136 13.3085 12.6136 13.3085 12.6136C13.3085 12.6136 13.3644 12.6136 13.4203 12.6136H13.4762H13.5881C13.8677 12.5573 14.0913 12.5573 14.315 12.6699L14.3709 12.7262L14.4268 12.6699C14.4268 12.6699 14.4268 12.6699 14.4828 12.7262C14.5387 12.7825 14.6505 12.8952 14.7623 12.8952C14.8183 12.8952 14.8183 12.9515 14.8742 12.9515C14.8742 12.9515 14.8742 12.9515 14.9301 12.9515C14.986 13.0078 15.0419 13.0641 15.1538 13.0641C15.3215 13.233 15.4893 13.4583 15.4893 13.5709V13.6835H15.5452C15.6011 13.7961 15.6011 13.9651 15.713 14.0777C15.657 14.134 15.713 14.2466 15.713 14.2466C15.713 14.2466 15.713 14.2466 15.713 14.3029V14.3592L15.7689 14.4155C15.7689 14.4719 15.7689 14.5282 15.8248 14.5845C15.8248 14.5845 15.8248 14.5845 15.8248 14.6408V14.6971C15.713 14.866 15.8248 14.9787 15.8807 14.9787C15.8248 15.035 15.8248 15.035 15.8248 15.0913V15.1476L15.8807 15.2039V15.2602L15.8248 15.3165V15.4291L15.8807 15.4855H15.9366C15.9366 15.5418 15.9366 15.5418 15.9366 15.5981V15.6544C15.8807 15.8233 15.8807 15.9922 15.9366 16.1612C15.8807 16.2175 15.8807 16.2738 15.9366 16.3301V16.3864V16.499H15.9925C15.9925 16.499 15.9925 16.499 15.9925 16.5554V16.668H16.0485C16.0485 16.7243 16.0485 16.7243 16.0485 16.7806C16.0485 16.8369 16.0485 16.8932 16.0485 16.8932C15.9925 17.0058 16.0485 17.1185 16.1044 17.1748V17.2311L16.0485 17.2874V17.3437C16.0485 17.4 16.0485 17.4 16.1044 17.4V17.4563V17.5126H16.0485L16.1044 17.5689C16.1044 17.6253 16.0485 17.6253 16.1044 17.6816L15.657 17.9631C15.657 17.9631 15.657 18.0194 15.713 18.0194C15.657 18.1321 15.7689 18.2447 15.8248 18.301L15.8807 18.3573H15.8248L15.8807 18.4699L15.8248 18.5262V18.6388C15.8248 18.6952 15.8248 18.7515 15.8248 18.7515C15.7689 18.7515 15.7689 18.8078 15.7689 18.8641V18.9767H15.8248V19.033C15.8248 19.0893 15.8248 19.0893 15.7689 19.1456L15.8807 19.202C15.8807 19.2583 15.8248 19.2583 15.8248 19.3146V19.3709H15.657V19.4835V19.5398V19.5961V19.7088V19.7651V19.8214C15.657 19.8777 15.657 19.8777 15.657 19.934V19.9903L15.5452 20.0466L15.657 20.1592C15.657 20.2155 15.657 20.2155 15.657 20.2719H15.6011L15.713 20.4408V20.4971C15.657 20.5534 15.657 20.6097 15.657 20.666V20.7223L15.713 20.7787L15.657 20.835C15.657 20.8913 15.657 20.8913 15.657 20.9476H15.5452L15.657 21.0602L15.5452 21.1165L15.6011 21.1728V21.4544C15.6011 21.5107 15.6011 21.567 15.657 21.567C15.713 21.6233 15.7689 21.6233 15.8248 21.567V21.6796L15.9366 21.6233C16.0485 21.6233 16.1044 21.567 16.1603 21.6233H16.2721V21.5107C16.3281 21.1165 16.3281 20.7223 16.3281 20.3845C16.3281 20.0466 16.3281 19.7088 16.384 19.3146C16.4399 19.4272 16.384 19.3709 16.384 19.3146Z" fill="#8D98C1" fill-opacity="0.5"/>
<path d="M9.00281 19.3146V17.5126C8.94689 17.2311 8.94689 16.9495 8.94689 16.668C8.94689 16.3301 8.94689 15.9923 8.89097 15.6544C8.89097 15.2039 8.77913 14.6971 8.72322 14.2466L8.6673 13.9088V13.8525C8.61138 13.7961 8.55546 13.6835 8.55546 13.5709C8.55546 13.4583 8.49954 13.402 8.44363 13.2893C8.33179 13.0641 8.16404 12.8952 7.99628 12.6699C7.94036 12.6136 7.88445 12.6136 7.88445 12.5573L7.82853 12.501L7.77261 12.4447H7.71669C7.54894 12.3321 7.4371 12.2758 7.26935 12.2194C7.21343 12.1631 7.15751 12.1631 7.10159 12.1631V12.1068H7.04568L6.65425 12.0505H6.59833L6.54241 12.1068C6.54241 12.1068 6.54241 12.1068 6.43058 12.1068C6.37466 12.1068 6.37466 12.1068 6.31874 12.0505H6.26282C6.26282 12.0505 6.26282 12.0505 6.20691 12.0505L6.03915 11.9942V12.0505C5.98323 12.0505 5.92732 12.0505 5.8714 12.1068H5.81548H5.53589H5.31222V12.2194C5.20038 12.2194 5.14446 12.2758 5.08855 12.2758C5.03263 12.2758 4.97671 12.3321 4.92079 12.3321H4.86487H4.80896V12.3884C4.75304 12.4447 4.6412 12.501 4.58528 12.501L4.47345 12.5573V12.7262C4.47345 12.7262 4.41753 12.7262 4.41753 12.7826H4.36161H4.30569V12.8952L4.24978 12.8389L4.19386 12.8952C4.13794 13.0078 4.02611 13.1204 3.91427 13.233C3.80243 13.3457 3.6906 13.5146 3.57876 13.6272L3.52284 13.6835V13.7398C3.52284 13.7398 3.46693 13.7961 3.41101 13.8525C3.35509 13.8525 3.35509 13.9651 3.35509 14.0214V14.0777C3.29917 14.134 3.29917 14.1903 3.29917 14.2466C3.29917 14.3029 3.29917 14.3029 3.29917 14.3029L3.24325 14.3593C3.24325 14.4156 3.24325 14.4719 3.24325 14.4719V14.5282H3.18734V14.5845C3.18734 14.6971 3.18734 14.8097 3.18734 14.9224C3.18734 15.035 3.13142 15.1476 3.18734 15.2602C3.13142 15.3165 3.13142 15.4292 3.18734 15.4855V15.5418L3.13142 15.5981L3.0755 15.767C3.13142 15.8233 3.0755 15.9359 3.0755 15.9923C3.0755 16.0486 3.01958 16.1612 3.0755 16.2738V16.3301C3.0755 16.3864 3.0755 16.4427 3.0755 16.4427L3.01958 16.5554V16.6117L3.13142 16.668C3.13142 16.7243 3.13142 16.7806 3.13142 16.8369C3.13142 16.8932 3.13142 16.9495 3.13142 16.9495L3.0755 17.0622L3.13142 17.1185C3.13142 17.1748 3.13142 17.2311 3.18734 17.2874C3.18734 17.2874 3.18734 17.2874 3.18734 17.3437H3.0755L3.01958 17.4563C3.01958 17.4563 3.01958 17.4563 3.01958 17.5126C3.01958 17.569 3.01958 17.6253 3.01958 17.6816C2.96366 17.7379 3.01958 17.8505 3.01958 17.9068V17.9631C2.90775 18.0758 2.96366 18.1884 3.01958 18.2447C2.96366 18.301 2.96366 18.3573 3.01958 18.4136L2.90775 18.4699L3.01958 18.5826C3.01958 18.5826 3.01958 18.6389 3.01958 18.6952L3.0755 18.7515H3.01958L3.0755 18.8641C3.0755 18.9204 3.0755 18.9767 3.13142 19.033V19.0893L3.0755 19.1457H3.13142C3.18734 19.202 3.13142 19.2583 3.13142 19.3709C3.13142 19.4835 3.0755 19.5961 3.13142 19.7088L3.0755 19.7651L3.18734 19.8214C3.18734 19.8777 3.13142 19.934 3.18734 20.0466C3.18734 20.1029 3.18734 20.1593 3.18734 20.2156C3.18734 20.3282 3.18734 20.4408 3.18734 20.5534V20.666C3.18734 20.7224 3.18734 20.7224 3.18734 20.7787H3.13142V20.835C3.13142 20.9476 3.18734 21.0039 3.18734 21.1165C3.18734 21.3418 3.18734 21.567 3.35509 21.7359V21.8486H3.41101C3.52284 21.7923 3.57876 21.6796 3.57876 21.567V21.5107C3.52284 21.3418 3.52284 21.0602 3.57876 20.835C3.57876 20.7787 3.57876 20.7224 3.57876 20.666V20.6097C3.52284 20.5534 3.52284 20.4408 3.57876 20.3845C3.57876 20.3282 3.57876 20.2156 3.57876 20.1029C3.63468 19.7088 3.57876 19.202 3.57876 18.8078C3.57876 18.6389 3.57876 18.4699 3.57876 18.301C3.57876 18.0758 3.57876 17.9068 3.57876 17.6816C3.57876 17.5126 3.57876 17.2874 3.57876 17.1185C3.63468 16.8932 3.63468 16.7243 3.63468 16.5554C3.63468 16.4427 3.63468 16.3864 3.63468 16.2738C3.6906 16.2175 3.6906 16.1612 3.6906 16.1049C3.6906 16.0486 3.6906 15.936 3.6906 15.8796C3.6906 15.8233 3.6906 15.767 3.6906 15.7107C3.6906 15.6544 3.6906 15.5981 3.6906 15.5418C3.6906 15.4855 3.74652 15.4292 3.6906 15.3165C3.74652 15.1476 3.80243 14.9787 3.80243 14.8097V14.7534C3.80243 14.6971 3.80243 14.6971 3.74652 14.6408C3.74652 14.5845 3.80243 14.4719 3.85835 14.4156C3.85835 14.2466 3.91427 14.134 3.91427 13.9651C3.97019 13.9088 4.02611 13.9088 4.02611 13.7961C4.02611 13.7961 4.02611 13.7961 4.02611 13.7398C4.08202 13.6835 4.13794 13.6272 4.19386 13.5709C4.24978 13.4583 4.3057 13.402 4.41753 13.402H4.47345V13.3457C4.47345 13.2893 4.52937 13.233 4.6412 13.1767C4.69712 13.1204 4.75304 13.1204 4.80896 13.0078C4.86488 13.0078 4.92079 13.0078 4.92079 12.9515C5.03263 12.9515 5.08855 12.8952 5.14446 12.8389C5.2563 12.7826 5.2563 12.7262 5.31222 12.7826H5.36814L5.42405 12.7262C5.47997 12.7262 5.47997 12.7262 5.53589 12.6699H5.59181C5.64773 12.6699 5.64773 12.6699 5.64773 12.6699C5.64773 12.6699 5.70364 12.6699 5.75956 12.6699H5.81548H5.92732C6.20691 12.6136 6.43058 12.6136 6.65425 12.7262L6.71017 12.7826L6.76609 12.7262C6.76609 12.7262 6.76609 12.7262 6.822 12.7826C6.87792 12.8389 6.98976 12.9515 7.10159 12.9515C7.15751 12.9515 7.15751 13.0078 7.21343 13.0078C7.21343 13.0078 7.21343 13.0078 7.26935 13.0078C7.32527 13.0641 7.38118 13.1204 7.49302 13.1204C7.66077 13.2893 7.82853 13.5146 7.82853 13.6272V13.7398C7.82853 13.8525 7.88445 14.0214 7.99628 14.134C7.94036 14.1903 7.99628 14.3029 7.99628 14.3029C7.99628 14.3029 7.99628 14.3029 7.99628 14.3593V14.4156L8.0522 14.4719C8.0522 14.5282 8.0522 14.5845 8.10812 14.6408C8.10812 14.6408 8.10812 14.6408 8.10812 14.6971V14.7534C8.0522 14.9224 8.16404 15.035 8.21995 15.035C8.16404 15.0913 8.16404 15.0913 8.16404 15.1476V15.2039L8.21995 15.2602V15.3165L8.16404 15.3728V15.4855L8.21995 15.5418H8.27587C8.27587 15.5981 8.27587 15.5981 8.27587 15.6544V15.7107C8.21995 15.8796 8.21995 16.0486 8.27587 16.2175C8.21995 16.2738 8.21995 16.3301 8.27587 16.3864V16.4427V16.5554H8.33179C8.33179 16.5554 8.33179 16.5554 8.33179 16.6117V16.7243H8.38771C8.38771 16.7806 8.38771 16.7806 8.38771 16.8369C8.38771 16.8932 8.38771 16.9495 8.38771 16.9495C8.38771 17.0622 8.38771 17.1748 8.44363 17.2311V17.2874L8.38771 17.3437V17.4C8.38771 17.4563 8.44363 17.4563 8.44363 17.4563V17.5126V17.569H8.38771L8.44363 17.6253C8.44363 17.6816 8.38771 17.6816 8.44363 17.7379L8.38771 17.7942C8.38771 17.7942 8.38771 17.8505 8.44363 17.8505C8.38771 17.9631 8.49954 18.0758 8.55546 18.1321L8.61138 18.1884H8.55546L8.61138 18.301L8.38771 18.5262V18.6389C8.38771 18.6952 8.38771 18.7515 8.38771 18.7515C8.33179 18.7515 8.33179 18.8078 8.33179 18.8641V18.9767H8.38771V19.033C8.38771 19.0893 8.38771 19.0893 8.33179 19.1457L8.44363 19.202C8.44363 19.2583 8.38771 19.2583 8.38771 19.3146V19.3709H8.27587V19.4835V19.5398V19.5961V19.7088V19.7651V19.8214C8.27587 19.8777 8.27587 19.8777 8.27587 19.934V19.9903L8.16404 20.0466L8.38771 20.2719C8.38771 20.3282 8.33179 20.3282 8.33179 20.3845H8.27587L8.38771 20.5534V20.6097C8.33179 20.666 8.33179 20.7224 8.33179 20.7787V20.835L8.38771 20.8913L8.33179 20.9476C8.33179 21.0039 8.33179 21.0039 8.33179 21.0602H8.21995L8.33179 21.1728L8.21995 21.2292L8.27587 21.2855V21.567C8.27587 21.6233 8.27587 21.6796 8.33179 21.6796C8.38771 21.7359 8.44363 21.7359 8.49954 21.6796V21.7923L8.61138 21.7359C8.72322 21.7359 8.77913 21.6796 8.83505 21.7359H8.94689V21.6233C9.00281 21.2292 9.00281 20.835 9.00281 20.4971C9.00281 20.1593 9.00281 19.8214 9.00281 19.4835C9.05872 19.4272 9.00281 19.3709 9.00281 19.3146Z" fill="#8D98C1" fill-opacity="0.5"/>
<path d="M23.5974 19.4835V17.6816C23.5415 17.4 23.5415 17.1184 23.5415 16.8369C23.5415 16.499 23.5415 16.1612 23.4855 15.8233C23.4855 15.3728 23.3737 14.866 23.3178 14.4155L23.2619 14.0777V14.0214C23.206 13.9651 23.15 13.8524 23.15 13.7398C23.15 13.6835 23.0941 13.5709 23.0382 13.4583C22.9264 13.233 22.7586 13.0641 22.5909 12.8388C22.5349 12.7825 22.479 12.7262 22.479 12.7262L22.4231 12.6699L22.3672 12.6136C22.1994 12.501 22.0876 12.4447 21.9198 12.3884C21.7521 12.3884 21.6962 12.3884 21.6402 12.3884V12.332H21.5843L21.1929 12.2757H21.137L21.0811 12.332C21.0811 12.332 21.0811 12.332 20.9692 12.332C20.9133 12.332 20.9133 12.2757 20.8574 12.2757H20.8015C20.8015 12.2757 20.8015 12.2757 20.7456 12.2757L20.5778 12.2194V12.2757C20.5219 12.2757 20.466 12.2757 20.4101 12.332H20.3541H20.1305H19.9068V12.4447C19.795 12.4447 19.739 12.501 19.6831 12.501C19.6272 12.501 19.5713 12.5573 19.5154 12.5573H19.4594H19.4035V12.6136C19.3476 12.6699 19.2358 12.7262 19.1799 12.7262L19.068 12.7825H19.1239C19.1239 12.7825 19.068 12.7825 19.068 12.8388H19.0121H18.9003V12.9515H18.7884L18.7325 13.0078C18.6766 13.1204 18.5648 13.233 18.4529 13.3456C18.3411 13.4583 18.2293 13.6272 18.1174 13.7398L18.0615 13.7961V13.8524C18.0615 13.8524 18.0056 13.9087 17.9497 13.9651C17.8937 14.0214 17.8937 14.0777 17.8937 14.134V14.1903C17.8937 14.2466 17.8937 14.3029 17.8937 14.3592C17.8937 14.4155 17.8937 14.4155 17.8937 14.4155L17.8378 14.4718C17.8378 14.5282 17.8378 14.5845 17.8378 14.5845V14.6408H17.7819V14.6971C17.7819 14.8097 17.7819 14.9223 17.7819 15.035C17.7819 15.1476 17.7819 15.2602 17.7819 15.3728C17.726 15.4291 17.726 15.5418 17.7819 15.5981V15.6544L17.726 15.7107L17.7819 15.767C17.8378 15.8233 17.7819 15.9359 17.7819 15.9922C17.7819 16.0485 17.726 16.1612 17.7819 16.2738V16.3301C17.7819 16.3864 17.7819 16.4427 17.7819 16.4427L17.726 16.5553V16.6117L17.7819 16.668C17.7819 16.7243 17.7819 16.7806 17.7819 16.8369C17.7819 16.8932 17.7819 16.9495 17.7819 16.9495L17.726 17.0621L17.7819 17.1184C17.7819 17.1748 17.7819 17.2311 17.8378 17.2874C17.8378 17.2874 17.8378 17.2874 17.8378 17.3437H17.726L17.7819 17.4563C17.7819 17.4563 17.7819 17.4563 17.7819 17.5126C17.7819 17.5689 17.7819 17.6252 17.7819 17.6816C17.726 17.7379 17.7819 17.8505 17.7819 17.9068V17.9631C17.6701 18.0757 17.726 18.1884 17.7819 18.2447C17.726 18.301 17.726 18.3573 17.7819 18.4136L17.6701 18.4699L17.7819 18.5825C17.7819 18.5825 17.7819 18.6388 17.7819 18.6951L17.8378 18.7515H17.7819L17.8378 18.8641C17.8378 18.9204 17.8378 18.9767 17.8937 19.033V19.0893L17.8378 19.1456L17.8937 19.2019C17.9497 19.2583 17.8937 19.3146 17.8937 19.4272C17.8937 19.5398 17.8378 19.6524 17.8937 19.765L17.8378 19.8214L17.9497 19.8777C17.9497 19.934 17.8937 19.9903 17.9497 20.1029C17.9497 20.1592 17.9497 20.2155 17.9497 20.2718C17.9497 20.3845 17.9497 20.4971 17.9497 20.6097V20.7223C17.9497 20.7786 17.9497 20.835 17.9497 20.835H17.8937V20.8913C17.8937 21.0039 17.8937 21.0602 17.8937 21.1728C17.8937 21.3981 17.8937 21.6233 18.0615 21.7922L18.1174 21.8485H18.1733C18.3411 21.7922 18.3411 21.6796 18.3411 21.567V21.5107C18.2852 21.3418 18.2852 21.0602 18.3411 20.835C18.3411 20.7786 18.3411 20.7223 18.3411 20.666C18.2852 20.6097 18.3411 20.4971 18.3411 20.4408C18.3411 20.3845 18.3411 20.2718 18.3411 20.1592C18.397 19.7651 18.3411 19.2583 18.3411 18.8641C18.3411 18.6951 18.3411 18.5262 18.3411 18.3573C18.3411 18.132 18.3411 17.9631 18.3411 17.7379C18.3411 17.5689 18.3411 17.3437 18.3411 17.1748C18.397 16.9495 18.397 16.7806 18.397 16.6117C18.397 16.499 18.397 16.4427 18.397 16.3301C18.4529 16.2738 18.4529 16.2175 18.4529 16.1612C18.4529 16.1049 18.4529 15.9922 18.4529 15.9359C18.4529 15.8796 18.4529 15.8233 18.4529 15.767C18.4529 15.7107 18.4529 15.6544 18.4529 15.5981C18.4529 15.5418 18.5088 15.4854 18.4529 15.3728C18.5088 15.2039 18.5648 15.035 18.5648 14.866V14.8097C18.5648 14.7534 18.5648 14.7534 18.5088 14.6971C18.5088 14.6408 18.5648 14.5282 18.6207 14.4718C18.6766 14.3592 18.7325 14.3029 18.7325 14.134C18.7884 14.0777 18.8444 14.0777 18.8444 13.9651C18.8444 13.9651 18.8444 13.9651 18.8444 13.9087C18.9003 13.8524 18.9562 13.7961 19.0121 13.7398C19.068 13.6272 19.1239 13.5709 19.2358 13.5709H19.2917V13.5146C19.2917 13.4583 19.3476 13.4019 19.4594 13.3456C19.5154 13.2893 19.5713 13.2893 19.6272 13.1767C19.6831 13.1767 19.739 13.1767 19.739 13.1204C19.795 13.1204 19.9068 13.0641 19.9627 13.0078C20.0745 12.9515 20.0745 12.8951 20.1305 12.9515H20.1864L20.2423 12.8951C20.2423 12.8951 20.2982 12.8951 20.3541 12.8388H20.4101C20.466 12.8388 20.466 12.8388 20.466 12.8388C20.466 12.8388 20.5219 12.8388 20.5778 12.8388H20.6337H20.7456C21.0252 12.7825 21.2488 12.7825 21.4725 12.8951L21.5284 12.9515L21.5843 12.8951C21.5843 12.8951 21.5843 12.8951 21.6402 12.9515C21.6962 13.0078 21.808 13.1204 21.9198 13.1204C21.9758 13.1204 21.9758 13.1767 22.0317 13.1767H22.0876C22.1435 13.233 22.1994 13.2893 22.3113 13.2893C22.479 13.4583 22.6468 13.6835 22.6468 13.7961V13.9087H22.7027C22.7027 14.0214 22.7586 14.1903 22.8704 14.3029C22.8704 14.3592 22.8704 14.4718 22.8704 14.4718C22.8704 14.4718 22.8704 14.4718 22.8704 14.5282V14.5845L22.9264 14.6408C22.9264 14.6971 22.9264 14.7534 22.9823 14.8097C22.9823 14.8097 22.9823 14.8097 22.9823 14.866V14.9223C22.8704 15.0913 23.0382 15.2039 23.0941 15.2039C23.0382 15.2602 23.0382 15.2602 23.0382 15.3165V15.3728L23.0941 15.4291V15.4854L23.0382 15.5418V15.6544L23.0941 15.7107H23.15C23.15 15.767 23.15 15.767 23.15 15.8233V15.8796C23.0941 16.0485 23.0941 16.2175 23.15 16.3864C23.0941 16.4427 23.0941 16.499 23.0941 16.5553V16.6117V16.7243H23.15C23.15 16.7243 23.15 16.7243 23.15 16.7806V16.8932H22.9264C22.9264 16.9495 22.9264 16.9495 22.9264 17.0058C22.9264 17.0621 22.9264 17.1184 22.9264 17.1184C22.9264 17.2311 22.9264 17.3437 22.9823 17.4V17.4563L22.9264 17.5126V17.5689C22.9264 17.6252 22.9264 17.6252 22.9823 17.6252V17.6816H22.9264L22.9823 17.7379C22.9823 17.7942 22.9264 17.7942 22.9823 17.8505L22.9264 17.9068C22.9264 17.9068 22.9264 17.9631 22.9823 17.9631C22.9264 18.0757 23.0382 18.1884 23.0941 18.2447L23.15 18.301H23.0941L23.15 18.4136L23.0941 18.4699V18.5825C23.0941 18.6388 23.0941 18.6951 23.0941 18.6951C23.0382 18.7515 23.0382 18.7515 23.0382 18.8078V18.9204H23.0941V18.9767C23.0941 19.033 23.0941 19.033 23.0382 19.0893L23.15 19.1456C23.15 19.2019 23.0941 19.2019 23.0941 19.2583V19.3146H22.9264V19.4272V19.4835V19.5398V19.6524V19.7087V19.765C22.9264 19.8214 22.9264 19.8214 22.9264 19.8777V19.934L22.8145 19.9903L22.9264 20.1029C22.9264 20.1029 22.9264 20.1592 22.9264 20.2155H22.8704L22.9823 20.3845V20.4408C22.9264 20.4971 22.9264 20.5534 22.9264 20.6097V20.666L22.9823 20.7223L22.9264 20.7786C22.9264 20.835 22.9264 20.835 22.9264 20.8913H22.8145L22.9264 21.0039L22.8145 21.0602L22.8704 21.1165V21.3981C22.8704 21.4544 22.8704 21.5107 22.9264 21.5107C22.9823 21.567 23.0382 21.567 23.0941 21.5107V21.6233L23.206 21.567C23.3178 21.567 23.3737 21.5107 23.4296 21.567H23.5415V21.4544C23.5974 21.0602 23.5974 20.666 23.5974 20.3282C23.5974 19.9903 23.5974 19.6524 23.5974 19.3146C23.6533 19.5398 23.6533 19.4835 23.5974 19.4835Z" fill="#8D98C1" fill-opacity="0.5"/>
<path d="M0 29H26.5051V2.30872H0V29ZM1.39795 3.71648H25.1072V27.5922H1.39795V3.71648Z" fill="#8D98C1" fill-opacity="0.5"/>
<path d="M79.795 23.7632C79.2358 23.7632 78.6766 23.7632 78.0056 23.4816C77.2227 23.1437 77.1668 22.7496 77.1668 21.1166V15.2602C77.1668 15.1476 77.2227 15.0913 77.3346 15.0913C77.726 15.0913 77.9497 15.0913 78.397 15.0913C79.3476 15.1476 79.9068 15.3166 80.4101 15.7107C82.2554 17.0059 82.8145 19.0894 82.8145 20.6098C82.7586 23.2 80.9133 23.7632 79.795 23.7632ZM77.1668 7.60199C77.1668 7.32044 77.2227 7.20782 77.3905 7.20782C77.6142 7.15151 77.8378 7.15151 78.1733 7.15151C80.2982 7.15151 81.2488 9.34762 81.2488 10.9806C81.2488 12.1632 80.8574 13.0641 80.2423 13.5709C79.8509 13.9651 79.2917 14.0214 78.4529 14.0214C77.8938 14.0214 77.5023 14.0214 77.2787 13.9651C77.1668 13.9651 77.1109 13.9088 77.1109 13.6835V7.60199H77.1668ZM81.3047 14.1903C82.6468 13.1204 83.8211 11.8816 83.8211 9.85442C83.8211 8.55927 83.0382 6.13791 78.6207 6.13791C77.7819 6.13791 76.8313 6.19423 75.657 6.19423C75.1538 6.19423 73.644 6.13791 72.302 6.13791H71.9664C71.0158 6.13791 69.4501 6.19423 69.1705 6.19423C69.1705 6.19423 67.6048 6.13791 66.3746 6.13791C66.0391 6.13791 65.8714 6.19423 65.8714 6.36316C65.8714 6.53209 66.0391 6.5884 66.2628 6.5884C66.5424 6.5884 66.9338 6.5884 67.1575 6.64471C67.9403 6.81364 68.164 7.20782 68.2199 8.05248C68.2759 8.84083 68.2759 9.51655 68.2759 13.2894V16.3865C68.2759 18.9204 68.2199 21.1729 66.8779 22.5243C65.8714 23.5379 64.5853 23.8758 63.4669 23.8758C62.6281 23.8758 61.5098 23.7632 60.3914 22.8622C59.1612 21.8486 58.4902 20.3845 58.4902 16.7806V13.3457C58.4902 9.57287 58.4902 8.89714 58.5461 8.10879C58.602 7.26413 58.7698 6.81364 59.4408 6.70102C59.7204 6.64471 59.8882 6.64471 60.1677 6.64471C60.3914 6.64471 60.5592 6.5884 60.5592 6.41947C60.5592 6.25054 60.3914 6.19423 60 6.19423C59.1053 6.19423 57.5955 6.25054 56.9804 6.25054C56.4212 6.25054 55.4147 6.19423 54.4082 6.19423C54.3523 6.19423 54.2964 6.19423 54.1845 6.19423C54.0727 6.19423 54.0168 6.19423 53.9049 6.19423C53.7372 6.19423 53.5694 6.19423 53.4017 6.19423C53.2339 6.19423 52.1156 6.25054 51.8919 6.25054C51.5564 6.25054 50.5498 6.19423 49.3197 6.19423C48.8723 6.19423 48.6486 6.25054 48.6486 6.41947C48.6486 6.5884 48.8164 6.5884 49.0401 6.5884C49.3756 6.5884 49.7111 6.5884 50.0466 6.70102C50.2703 6.75733 50.3821 6.98257 50.3821 7.15151C50.3821 7.37675 50.2703 7.77092 50.1584 8.05248C49.5433 9.68549 46.356 17.6253 45.3495 20.3282H45.2376L41.0438 9.12238C40.7083 8.22141 40.4846 7.54568 40.4846 7.20782C40.4846 6.98257 40.5405 6.81364 40.7083 6.70102C40.876 6.53209 41.2675 6.53209 41.6589 6.53209C41.8826 6.53209 42.0503 6.47578 42.0503 6.30685C42.0503 6.13791 41.7707 6.0816 41.4911 6.0816C40.2609 6.0816 39.0867 6.13791 38.4716 6.13791C37.6328 6.13791 36.2348 6.0816 34.8928 6.0816C34.5014 6.0816 34.2777 6.0816 34.2777 6.30685C34.2777 6.47578 34.3336 6.53209 34.5573 6.53209C34.781 6.53209 35.1724 6.53209 35.5079 6.64471C36.4026 6.86995 36.794 7.15151 37.3532 8.50296L43.4483 23.6505C43.8956 24.8331 44.0634 25.1709 44.3989 25.1709C44.7344 25.1709 44.9021 24.7767 45.5172 23.369C46.0764 22.1301 47.1948 19.4272 48.7605 15.8233C50.1025 12.7826 50.7735 11.4311 51.7241 9.12238C52.3951 7.54568 52.7307 7.15151 53.0662 6.92626C53.3458 6.75733 53.7372 6.5884 54.1845 6.70102C54.9674 6.86995 55.191 7.26413 55.247 8.10879C55.3029 8.89714 55.3029 9.57287 55.3029 13.3457V16.8933C55.3029 20.4971 56.2535 22.2991 57.4837 23.4253C59.2731 25.0583 61.6216 25.1146 62.9077 25.1146C64.4734 25.1146 66.2628 24.8331 67.9963 23.3127C70.0652 21.5107 70.3448 18.6389 70.3448 15.8797V13.2331C70.3448 9.46024 70.3448 8.78452 70.4007 7.99617C70.4567 7.15151 70.6244 6.70102 71.2954 6.5884C71.9664 6.47578 72.6375 6.47578 73.0848 6.5884C73.8677 6.75733 74.0913 7.15151 74.1473 7.99617C74.2032 8.78452 74.2032 9.46024 74.2032 13.2331V17.569C74.2032 19.8214 74.2032 21.7923 74.0913 22.8059C73.9795 23.5379 73.8677 24.0447 73.3644 24.1573C73.1407 24.2136 72.8611 24.2699 72.4697 24.2699C72.1901 24.2699 72.0783 24.3263 72.0783 24.4952C72.0783 24.6641 72.246 24.7204 72.5815 24.7204C73.0848 24.7204 73.6999 24.6641 74.2591 24.6641C74.8183 24.6641 75.3774 24.6641 75.657 24.6641C76.0485 24.6641 76.7754 24.6641 77.5023 24.7204C78.2293 24.7204 78.9003 24.7767 79.2358 24.7767C83.7651 24.7767 85.7782 22.0175 85.7782 19.3709C85.7782 16.6117 83.3178 14.8661 81.3047 14.1903Z" fill="#8D98C1" fill-opacity="0.5"/>
<path d="M98.3038 7.60198C98.3038 7.32043 98.3598 7.20781 98.5275 7.1515C98.7512 7.09518 98.9749 7.09519 99.3663 7.09519C101.491 7.09519 102.442 9.2913 102.442 10.9243C102.442 12.1631 102.05 13.0641 101.435 13.5709C100.988 13.9651 100.485 14.0214 99.6459 14.0214C99.0867 14.0214 98.6953 14.0214 98.4716 13.9651C98.3598 13.9651 98.3038 13.9088 98.3038 13.6835V7.60198ZM95.3961 17.6816C95.3961 19.934 95.3961 21.9049 95.2843 22.9748C95.1724 23.7068 95.0606 24.2136 94.5573 24.3263C94.3337 24.3826 94.0541 24.4389 93.6626 24.4389C93.3831 24.4389 93.2712 24.4952 93.2712 24.6641C93.2712 24.8331 93.439 24.8894 93.7745 24.8894C94.781 24.8894 96.2908 24.8331 96.85 24.8331C97.5769 24.8331 99.8136 25.002 100.429 25.002C104.958 25.002 107.027 22.2428 107.027 19.5962C107.027 16.668 104.567 14.9224 102.554 14.2466C103.896 13.1767 105.07 11.9379 105.07 9.91072C105.07 8.61557 104.287 6.19421 99.8136 6.19421C98.9749 6.19421 98.0243 6.25052 96.7941 6.25052C96.2908 6.25052 94.781 6.19421 93.439 6.19421C93.0475 6.19421 92.8798 6.25052 92.8798 6.41946C92.8798 6.58839 93.0475 6.6447 93.2712 6.6447C93.6067 6.6447 94.0541 6.6447 94.2218 6.70101C95.0047 6.86994 95.2283 7.26412 95.2843 8.10878C95.3402 8.89713 95.3402 9.57286 95.3402 13.3457V17.6816H95.3961ZM103.952 20.6661C103.952 23.2564 102.05 23.8195 100.988 23.8195C100.429 23.8195 99.8695 23.8195 99.1985 23.5379C98.4157 23.2 98.3598 22.8059 98.3598 21.1729V15.2602C98.3598 15.1476 98.4157 15.0913 98.5275 15.0913C98.9189 15.0913 99.1426 15.0913 99.59 15.0913C100.541 15.1476 101.1 15.3165 101.659 15.7107C103.448 17.0622 103.952 19.1457 103.952 20.6661Z" fill="#8D98C1" fill-opacity="0.5"/>
<path d="M115.918 17.2875H111.389C111.277 17.2875 111.277 17.2312 111.277 17.1185L113.514 11.037C113.569 10.9244 113.569 10.8117 113.681 10.8117C113.737 10.8117 113.793 10.9244 113.793 11.037L115.974 17.1185C116.086 17.2312 116.086 17.2875 115.918 17.2875ZM141.584 6.30688C140.354 6.30688 139.459 6.36319 139.18 6.36319C138.677 6.36319 137.502 6.30688 136.216 6.30688C135.825 6.30688 135.601 6.30688 135.601 6.53212C135.601 6.70106 135.713 6.75737 135.993 6.75737C136.328 6.75737 136.943 6.75737 137.279 6.9263C137.894 7.15154 138.061 7.65834 138.117 9.12242L138.341 20.1593H138.229C137.782 19.7651 134.539 16.2176 132.861 14.5282C129.282 10.9807 125.592 6.9263 125.256 6.64475C124.865 6.19426 124.641 5.8564 124.362 5.8564C124.138 5.8564 124.026 6.19426 124.026 6.70106L123.802 21.2855C123.802 23.4253 123.523 24.3263 123.02 24.3263C122.069 24.3263 121.789 23.7069 120.951 21.6797C119.385 17.9632 115.471 7.88358 114.856 6.53212C114.632 5.96902 114.464 5.74377 114.24 5.74377C114.017 5.74377 113.849 6.02533 113.569 6.70106L107.418 22.1865C106.915 23.4253 106.468 24.27 105.349 24.3826C105.126 24.3826 105.126 24.4389 104.902 24.4389C104.678 24.4389 104.623 24.4952 104.623 24.6642C104.623 24.8331 104.79 24.8894 105.07 24.8894C106.356 24.8894 107.363 24.8331 107.642 24.8331C108.425 24.8331 109.431 24.8894 110.214 24.8894C110.494 24.8894 110.606 24.8331 110.606 24.6642C110.606 24.4952 110.55 24.4389 110.27 24.4389H109.879C109.096 24.4389 108.872 24.1011 108.872 23.7069C108.872 23.4253 108.984 22.8059 109.264 22.1865L110.606 18.6389C110.662 18.47 110.718 18.4137 110.829 18.4137H116.309C116.421 18.4137 116.533 18.47 116.533 18.5826L118.49 23.8195C118.602 24.1011 118.434 24.3263 118.267 24.3826C118.043 24.3826 117.931 24.4389 117.931 24.6078C117.931 24.7768 118.211 24.7768 118.658 24.7768C120.615 24.8331 122.404 24.8331 123.299 24.8331C123.858 24.8331 126.095 24.8331 127.717 24.8331C128.052 24.8331 128.276 24.7768 128.276 24.6078C128.276 24.4389 128.108 24.3826 127.884 24.3826C127.493 24.3826 127.046 24.3826 126.598 24.2137C126.095 24.0447 125.815 23.4253 125.76 21.4545L125.536 11.2622H125.592C126.039 11.7127 128.723 14.8098 131.407 17.4564C133.979 19.9904 137.055 23.2001 138.621 24.7205C138.9 25.002 139.18 25.2836 139.459 25.2836C139.683 25.2836 139.795 25.0583 139.795 24.5515L140.075 9.00979C140.075 7.60203 140.298 7.09523 140.969 6.9263C141.249 6.86999 141.472 6.86999 141.696 6.86999C141.976 6.86999 142.144 6.81368 142.144 6.64475C142.144 6.36319 141.92 6.30688 141.584 6.30688Z" fill="#8D98C1" fill-opacity="0.5"/>
<path d="M147.176 13.4583C147.176 9.6855 147.176 9.00977 147.232 8.22142C147.288 7.37676 147.456 6.92628 148.127 6.81366C148.406 6.75735 148.574 6.75735 148.798 6.75735C148.965 6.75735 149.133 6.70103 149.133 6.5321C149.133 6.36317 148.965 6.30686 148.63 6.30686C147.791 6.30686 146.281 6.36317 145.666 6.36317C145.051 6.36317 143.541 6.30686 142.255 6.30686C141.864 6.30686 141.696 6.36317 141.696 6.5321C141.696 6.70103 141.864 6.75735 142.088 6.75735C142.423 6.75735 142.87 6.75735 143.038 6.81366C143.821 6.98259 144.045 7.37676 144.101 8.22142C144.157 9.00977 144.157 9.6855 144.157 13.4583V17.7942C144.157 20.0467 144.157 22.0175 144.045 23.0311C143.933 23.7632 143.821 24.27 143.318 24.3826C143.094 24.4389 142.815 24.4952 142.423 24.4952C142.144 24.4952 142.032 24.5515 142.032 24.7204C142.032 24.8894 142.199 24.9457 142.535 24.9457C143.541 24.9457 145.051 24.8894 145.61 24.8894C146.226 24.8894 147.735 24.9457 149.133 24.9457C149.413 24.9457 149.581 24.8894 149.581 24.7204C149.581 24.6078 149.469 24.4952 149.245 24.4952C148.91 24.4952 148.406 24.4389 148.071 24.3826C147.456 24.27 147.232 23.7632 147.176 23.0311C147.12 21.9612 147.12 20.0467 147.12 17.7379V15.4855H147.232L147.512 15.8797C148.015 16.6117 152.824 22.2991 153.942 23.2564C155.005 24.2137 155.676 24.7204 156.962 24.8331C157.465 24.8894 157.912 24.8894 158.639 24.8894H160.764C161.212 24.8894 161.379 24.8331 161.379 24.6641C161.379 24.4952 161.212 24.4389 161.044 24.4389C160.764 24.4389 160.261 24.3826 159.534 24.0447C158.192 23.5379 157.129 22.4117 156.011 21.3981C155.061 20.4971 150.252 15.2603 149.357 14.134C150.196 13.2331 153.886 9.57288 154.613 8.84084C155.676 7.82725 156.514 7.26414 157.241 6.98259C157.689 6.81366 158.304 6.70103 158.639 6.70103C158.863 6.70103 159.031 6.64472 159.031 6.47579C159.031 6.30686 158.863 6.25055 158.639 6.25055C157.856 6.25055 156.514 6.30686 155.787 6.30686C155.116 6.30686 153.774 6.25055 153.271 6.25055C152.992 6.25055 152.88 6.30686 152.88 6.47579C152.88 6.64472 152.992 6.70103 153.215 6.70103C153.439 6.75734 153.551 6.92628 153.551 7.20783C153.551 7.60201 152.992 8.22142 152.321 9.06608C151.594 9.91074 148.015 13.5709 147.232 14.4719H147.12V13.4583H147.176Z" fill="#8D98C1" fill-opacity="0.5"/>
<path d="M166.971 17.2874C166.859 17.2874 166.859 17.2311 166.859 17.1184L169.096 11.0932C169.096 10.9806 169.152 10.868 169.264 10.868C169.32 10.868 169.376 10.9806 169.376 11.0932L171.556 17.1748C171.556 17.2311 171.556 17.3437 171.445 17.3437L166.971 17.2874ZM171.892 18.4699C172.004 18.4699 172.06 18.5262 172.116 18.6388L174.073 23.8194C174.185 24.101 174.017 24.3262 173.849 24.3825C173.625 24.3825 173.514 24.4388 173.514 24.6078C173.514 24.7767 173.793 24.7767 174.24 24.7767C176.198 24.833 177.987 24.833 178.826 24.833C179.72 24.833 179.944 24.7767 179.944 24.6078C179.944 24.4388 179.832 24.3825 179.609 24.3825C179.329 24.3825 178.938 24.3825 178.602 24.2699C178.099 24.101 177.372 23.7631 176.477 21.567C174.911 17.8505 170.997 7.82718 170.438 6.47573C170.214 5.91262 170.047 5.68738 169.823 5.68738C169.599 5.68738 169.432 5.96893 169.152 6.64466L163.057 22.0738C162.554 23.3126 162.106 24.1573 160.988 24.2699C160.764 24.2699 160.429 24.3262 160.205 24.3262C159.981 24.3262 159.925 24.3825 159.925 24.5515C159.925 24.7204 160.093 24.7767 160.373 24.7767C161.659 24.7767 163.001 24.7204 163.225 24.7204C163.952 24.7204 165.014 24.7767 165.797 24.7767C166.076 24.7767 166.188 24.7204 166.188 24.5515C166.188 24.3825 166.132 24.3262 165.797 24.3262H165.517C164.79 24.3262 164.567 23.9884 164.567 23.5379C164.567 23.2563 164.679 22.6369 164.958 22.0175L166.3 18.5262C166.356 18.3573 166.412 18.3573 166.524 18.3573H171.892V18.4699Z" fill="#8D98C1" fill-opacity="0.5"/>
<path d="M60.5032 3.88547C60.5032 3.71654 60.7828 3.60392 61.0624 3.37868C62.2926 2.47771 63.8583 0.901007 64.082 0.563143C64.3616 0.168968 64.3616 -0.0562744 64.5293 -0.0562744C64.6412 -0.0562744 64.753 3.62583e-05 65.0326 0.112658C65.3681 0.28159 66.3187 0.619454 66.8779 0.788386C67.1016 0.844696 67.2134 0.901007 67.2134 1.01363C67.2134 1.18256 66.822 1.46411 66.3187 1.68936C65.8714 1.9146 61.1743 3.94178 60.7828 3.94178C60.671 4.11071 60.5032 4.0544 60.5032 3.88547Z" fill="#8D98C1" fill-opacity="0.5"/>
</g>
<defs>
<clipPath id="clip0">
<rect width="180" height="29" fill="white"/>
</clipPath>
</defs>
</svg>
