<svg width="153" height="21" viewBox="0 0 153 21" fill="none" xmlns="http://www.w3.org/2000/svg">
<path fill-rule="evenodd" clip-rule="evenodd" d="M4.84714 7.72199V20.3537H0.360962L0.362986 0.46814H3.87294L16.7829 13.0185V0.475518H21.2718V20.2751H17.5676L4.84714 7.72199ZM22.7446 19.7922V0.469445H40.9552V5.01458H27.3635V15.8879H40.9812V20.433H22.7446V19.7922ZM28.4361 11.6719V8.28139H40.2535V12.3127H28.4361V11.6719ZM62.2305 20.2427L54.7816 13.0706L47.2106 20.433H41.4964L51.8303 10.081L41.5612 0.469559H48.1956L55.1138 7.11271L61.932 0.469559H68.1226L58.0425 10.0788L68.9571 20.433H62.4281L62.2305 20.2427ZM75.7807 19.7922V5.01458H68.6079V0.469445H78.6934L78.6932 20.433H75.7807V19.7922Z" fill="#8D98C1" fill-opacity="0.5"/>
<path fill-rule="evenodd" clip-rule="evenodd" d="M91.7377 19.7923V0.469482H109.948V5.01462H96.3563V15.8879H109.974V20.433H91.7377V19.7923ZM97.4289 11.6719V8.28142H109.246V12.3127H97.4289V11.6719ZM120.436 20.433C119.737 20.433 119.058 20.3669 118.4 20.235C117.743 20.1034 117.112 19.9052 116.507 19.6407C115.908 19.3791 115.348 19.0691 114.828 18.7106C114.309 18.3528 113.827 17.9455 113.383 17.4886C112.941 17.0326 112.548 16.5347 112.204 15.9951C111.86 15.4543 111.566 14.8761 111.324 14.2614C111.079 13.639 110.895 12.9936 110.773 12.3256C110.651 11.6578 110.591 10.9685 110.591 10.2585C110.591 9.5379 110.651 8.84581 110.773 8.18244C110.895 7.52123 111.079 6.88572 111.326 6.27644C111.574 5.66687 111.868 5.10571 112.209 4.59309C112.553 4.07637 112.949 3.60109 113.397 3.16764C113.84 2.73856 114.323 2.35778 114.846 2.02524C115.369 1.69282 115.931 1.4092 116.53 1.1748C117.133 0.939088 117.761 0.762745 118.412 0.645769C119.068 0.528339 119.742 0.469482 120.436 0.469482H131.348V5.01462H120.436C120.056 5.01462 119.691 5.04794 119.343 5.11451L119.342 5.11213C119.001 5.17763 118.67 5.27655 118.352 5.40931C118.036 5.54087 117.741 5.69888 117.467 5.88311C117.195 6.06553 116.945 6.27309 116.717 6.50539C116.487 6.74031 116.283 6.99725 116.104 7.27638C115.923 7.55727 115.766 7.86506 115.632 8.19918C115.5 8.52968 115.401 8.87731 115.335 9.24175C115.269 9.60999 115.235 10.0005 115.235 10.4126C115.235 10.8163 115.269 11.2024 115.335 11.5707C115.403 11.943 115.502 12.2966 115.632 12.6313C115.765 12.9698 115.923 13.2851 116.106 13.5765C116.285 13.8599 116.489 14.1217 116.72 14.3611C116.952 14.6016 117.202 14.8143 117.472 14.9989C117.741 15.1829 118.037 15.3444 118.36 15.4829C118.678 15.6191 119.006 15.7206 119.345 15.7873C119.687 15.8544 120.05 15.8879 120.436 15.8879H131.348V20.433H120.436ZM147.855 19.8693V12.3898H138.343V8.20435H147.855V0.469482H152.499V20.5101H147.855V19.8693ZM132.652 19.8693V0.469482H137.296V20.5101H132.652V19.8693ZM82.9385 19.7923V5.01462H90.1111V0.469482H80.0258L80.0259 20.433H82.9385V19.7923Z" fill="#8D98C1" fill-opacity="0.5"/>
</svg>