<svg width="138" height="43" viewBox="0 0 138 43" fill="none" xmlns="http://www.w3.org/2000/svg">
<g clip-path="url(#clip0)">
<path fill-rule="evenodd" clip-rule="evenodd" d="M129.94 33.4431V27.3275L124.829 19.1098H128.171L131.513 24.8431L134.855 19.1098H138.197L133.085 27.5187V33.6342H129.94V33.4431ZM115 27.1364V30.9587H117.556C118.538 30.9587 119.325 30.9587 119.521 30.9587C119.915 30.9587 120.308 30.7675 120.504 30.3853C120.701 30.0031 120.897 29.6209 120.897 29.2387C120.897 28.8564 120.897 28.4742 120.504 28.092C120.308 27.7098 119.915 27.5187 119.521 27.5187C119.128 27.3275 118.342 27.3275 116.966 27.3275H115V27.1364ZM115 21.4031V24.8431H116.769C117.949 24.8431 118.538 24.8431 118.735 24.8431C119.128 24.8431 119.521 24.652 119.915 24.2698C120.111 24.0787 120.308 23.6964 120.308 23.1231C120.308 22.7409 120.111 22.3587 119.915 21.9764C119.718 21.7853 119.325 21.5942 118.932 21.4031C118.735 21.4031 117.752 21.4031 116.573 21.4031H115ZM112.051 19.1098H117.752C118.932 19.1098 119.718 19.1098 120.308 19.3009C120.897 19.3009 121.291 19.6831 121.684 19.8742C122.077 20.2564 122.47 20.6387 122.667 21.0209C122.863 21.5942 123.06 22.1675 123.06 22.7409C123.06 23.5053 122.863 24.0787 122.47 24.652C122.077 25.2253 121.684 25.6075 121.094 25.9898C121.88 26.1809 122.667 26.7542 123.06 27.3275C123.453 27.9009 123.846 28.6653 123.846 29.4298C123.846 30.0031 123.65 30.7675 123.453 31.3409C123.256 31.9142 122.667 32.4875 122.274 32.8698C121.684 33.252 121.094 33.4431 120.308 33.6342C119.915 33.6342 118.735 33.6342 116.966 33.6342H112.051V19.1098ZM98.8803 33.4431V19.1098H109.299V21.5942H101.632V24.8431H108.709V27.3275H101.632V31.3409H109.496V33.8253H98.8803V33.4431ZM87.6752 25.2253H89.8376C91.2137 25.2253 92 25.2253 92.3932 25.0342C92.7863 24.8431 92.9829 24.652 93.1795 24.4609C93.3761 24.0787 93.3761 23.8875 93.3761 23.3142C93.3761 22.7409 93.1795 22.3587 92.9829 22.1675C92.7863 21.7853 92.3932 21.5942 92 21.5942C91.8034 21.5942 91.0171 21.5942 89.8376 21.5942H87.6752V25.2253ZM84.7265 33.4431V19.1098H90.6239C92.1966 19.1098 93.1795 19.3009 93.9658 19.492C94.5556 19.6831 95.1453 20.2564 95.5385 20.8298C95.9316 21.5942 96.1282 22.1675 96.1282 23.1231C96.1282 24.2698 95.7351 25.0342 95.1453 25.7987C94.5556 26.5631 93.5727 26.9453 92.3932 27.1364C92.9829 27.5187 93.5727 27.9009 93.9658 28.2831C94.359 28.6653 94.9487 29.4298 95.5385 30.5764L97.3077 33.4431H93.9658L92 30.3853C91.2137 29.2387 90.8205 28.4742 90.4274 28.2831C90.2308 27.9009 89.8376 27.7098 89.641 27.7098C89.2479 27.5187 88.8547 27.5187 88.265 27.5187H87.6752V33.6342H84.7265V33.4431ZM75.8803 33.4431V21.4031H71.7521V19.1098H82.9573V21.5942H78.8291V33.6342H75.8803V33.4431ZM59.7607 26.372C59.7607 28.092 60.1539 29.2387 60.9402 30.0031C61.7265 30.7675 62.7094 31.3409 63.6923 31.3409C64.8718 31.3409 65.8547 30.9587 66.4445 30.0031C67.2308 29.2387 67.6239 27.9009 67.6239 26.1809C67.6239 24.4609 67.2308 23.3142 66.641 22.5498C65.8547 21.7853 65.0684 21.4031 63.8889 21.4031C62.7094 21.4031 61.7265 21.7853 61.1368 22.5498C60.1539 23.3142 59.7607 24.652 59.7607 26.372ZM56.812 26.372C56.812 24.8431 57.0086 23.6964 57.4017 22.7409C57.7949 21.9764 58.188 21.4031 58.7778 20.8298C59.3675 20.2564 59.9573 19.8742 60.547 19.492C61.3333 19.1098 62.5128 18.9187 63.4957 18.9187C65.6581 18.9187 67.2308 19.492 68.4103 20.8298C69.5897 22.1675 70.1795 24.0787 70.1795 26.372C70.1795 28.6653 69.5897 30.5764 68.4103 31.9142C67.2308 33.252 65.4615 33.8253 63.4957 33.8253C61.3333 33.8253 59.7607 33.252 58.5812 31.9142C57.4017 30.5764 56.812 28.6653 56.812 26.372ZM47.1795 21.5942V25.6075H48.7521C49.9316 25.6075 50.718 25.6075 50.9145 25.4164C51.3077 25.2253 51.5043 25.0342 51.8974 24.652C52.094 24.2698 52.2906 23.8875 52.2906 23.5053C52.2906 22.932 52.094 22.5498 51.8974 22.1675C51.5043 21.7853 51.3077 21.5942 50.7179 21.5942C50.3248 21.5942 49.735 21.5942 48.7521 21.5942H47.1795ZM44.2308 33.4431V19.1098H48.7521C50.5214 19.1098 51.7009 19.1098 52.094 19.3009C52.8803 19.492 53.6667 20.0653 54.0598 20.6387C54.6496 21.4031 54.8462 22.3587 54.8462 23.5053C54.8462 24.4609 54.6496 25.2253 54.453 25.7987C54.0598 26.372 53.6667 26.9453 53.2735 27.1364C52.8803 27.5187 52.2906 27.7098 51.8974 27.9009C51.3077 28.092 50.3248 28.092 48.9487 28.092H47.1795V33.6342H44.2308V33.4431ZM114.803 9.55422H121.094V11.0831H114.803V16.2431H121.094V17.5809H113.231V2.86533H121.094V4.39422H114.803V9.55422ZM103.402 12.9942V17.5809H102.026V2.86533H103.402V11.0831L110.282 2.86533H112.051L106.154 9.93644L112.051 17.5809H110.282L105.171 11.0831L103.402 12.9942ZM98.094 6.68755C97.5043 5.732 96.718 5.15866 95.735 4.58533C94.9487 4.20311 93.9658 4.012 92.9829 4.012C91.2137 4.012 89.8376 4.58533 88.6581 5.732C87.4786 6.87866 86.8889 8.40755 86.8889 10.1276C86.8889 11.8475 87.4786 13.3764 88.6581 14.5231C89.8376 15.6698 91.2137 16.2431 92.9829 16.2431C93.9658 16.2431 94.9487 16.052 95.735 15.6698C96.5214 15.2875 97.3077 14.7142 97.8974 13.7587H99.6667C98.8803 15.0964 98.094 16.052 96.9145 16.6253C95.735 17.3898 94.5556 17.5809 92.9829 17.5809C90.8205 17.5809 88.8547 16.8164 87.4786 15.2875C85.906 13.7587 85.3162 12.0387 85.3162 9.74533C85.3162 8.78977 85.5128 7.83422 85.906 6.87866C86.2991 5.92311 86.8889 5.15866 87.6752 4.39422C88.4615 3.62977 89.2479 3.24755 90.0342 2.86533C91.0171 2.48311 91.8034 2.292 92.9829 2.292C94.5556 2.292 95.7351 2.67422 97.1111 3.43866C98.2906 4.20311 99.2735 5.15866 99.8633 6.49644H98.094V6.68755ZM76.8633 9.55422H83.1538V11.0831H76.8633V16.2431H83.1538V17.5809H75.2906V2.86533H83.1538V4.39422H76.8633V9.55422ZM71.7521 4.39422H65.0684V2.86533H73.3248V4.20311L66.2479 16.052H73.5214V17.3898H64.8718V16.2431L71.7521 4.39422ZM56.6154 9.55422H62.906V11.0831H56.6154V16.2431H62.906V17.5809H55.0427V2.86533H62.906V4.39422H56.6154V9.55422ZM44.4274 2.86533H47.1795C48.9487 2.86533 50.1282 3.24755 50.9145 3.82088C51.7009 4.39422 52.094 5.34977 52.094 6.68755C52.094 7.26088 51.8974 8.02533 51.7009 8.40755C51.5043 8.78977 51.1111 9.36311 50.5214 9.55422C51.3077 9.93644 51.8974 10.3187 52.2906 10.892C52.6838 11.4653 52.8803 12.2298 52.8803 12.9942C52.8803 14.5231 52.4872 15.4787 51.7009 16.2431C50.9145 17.0075 49.5385 17.1987 47.7692 17.1987H44.4274V2.86533ZM45.8034 4.39422V9.36311H46.7863C48.1624 9.36311 49.3419 9.17199 49.9316 8.78977C50.5214 8.40755 50.7179 7.83422 50.7179 6.87866C50.7179 6.11422 50.5214 5.34977 49.9316 4.96755C49.3419 4.58533 48.359 4.39422 47.1795 4.39422H45.8034ZM45.8034 10.7009V16.2431H47.9658C49.1453 16.2431 50.1282 16.052 50.7179 15.4787C51.1111 15.0964 51.5043 14.332 51.5043 13.3764C51.5043 12.4209 51.3077 11.6564 50.7179 11.2742C50.1282 10.892 49.1453 10.5098 47.9658 10.5098H45.8034V10.7009ZM8.64957 0.954218C12.188 0.189774 16.1197 -0.383559 19.6581 0.380885C29.2906 11.8475 24.9658 22.932 14.7436 33.252C22.2137 21.0209 20.8376 9.93644 8.64957 0.954218ZM5.89744 42.9987C23.5897 31.1498 35.188 18.1542 24.1795 0.571996C28.7009 1.33644 30.2735 1.71866 33.0256 3.24755C42.4615 17.9631 30.4701 30.3853 5.89744 42.9987ZM0 4.96755C10.2222 11.2742 15.3333 19.492 13.3675 30.1942C18.4786 19.6831 15.5299 10.1275 4.71795 2.10088C2.75214 2.86533 1.37607 4.012 0 4.96755Z" fill="#8D98C1" fill-opacity="0.5"/>
</g>
<defs>
<clipPath id="clip0">
<rect width="138" height="43" fill="white"/>
</clipPath>
</defs>
</svg>