<svg width="138" height="31" viewBox="0 0 138 31" fill="none" xmlns="http://www.w3.org/2000/svg">
<path fill-rule="evenodd" clip-rule="evenodd" d="M57.7026 16.4847H50.7311V10.2117H47.6565V25.7117H50.7311V19.4388H57.7026V25.7117H60.7772V10.2117H57.7026V16.4847Z" fill="#8D98C1" fill-opacity="0.5"/>
<path fill-rule="evenodd" clip-rule="evenodd" d="M75.042 19.0741C75.042 21.5906 73.8264 22.94 71.5741 22.94C69.3218 22.94 68.1062 21.5541 68.1062 18.9647V10.2117H65.0316V19.0741C65.0316 23.4141 67.3912 25.9306 71.5383 25.9306C75.7213 25.9306 78.1166 23.3776 78.1166 18.9647V10.2117H75.042V19.0741Z" fill="#8D98C1" fill-opacity="0.5"/>
<path fill-rule="evenodd" clip-rule="evenodd" d="M110.65 20.8611L107.182 10.2117H104.68L101.248 20.8611L97.8871 10.2482H94.598L99.8892 25.7117H102.463L105.895 15.5364L109.363 25.7117H111.937L117.193 10.2482H114.011L110.65 20.8611Z" fill="#8D98C1" fill-opacity="0.5"/>
<path fill-rule="evenodd" clip-rule="evenodd" d="M122.734 19.0376H128.311V16.2293H122.734V13.0564H130.85V10.2482H119.695V25.7117H131.136V22.867H122.734V19.0376Z" fill="#8D98C1" fill-opacity="0.5"/>
<path d="M137.857 10.2117H134.818V25.6753H137.857V10.2117Z" fill="#8D98C1" fill-opacity="0.5"/>
<path d="M91.1658 22.4658L92.5244 25.6753H95.742L89.128 10.2847L89.0565 10.2117H86.3752L79.6897 25.6753H82.8358L84.1228 22.6847L84.2301 22.4658H91.1658ZM87.698 14.1506L89.8788 19.3294L90.0218 19.6941H85.3741L85.5171 19.3294L87.698 14.1506Z" fill="#8D98C1" fill-opacity="0.5"/>
<path fill-rule="evenodd" clip-rule="evenodd" d="M17.3394 24.0705C17.3394 24.0705 17.4109 23.9975 17.3751 23.9246C12.6917 13.4575 6.25649 5.50696 6.25649 5.50696C6.25649 5.50696 2.75286 8.89872 3.00312 12.2905C3.14613 14.8434 5.04095 16.3752 5.04095 16.3752C8.0798 19.4023 15.4446 23.2317 17.1606 24.107C17.1964 24.107 17.2679 24.1434 17.3394 24.0705Z" fill="#8D98C1" fill-opacity="0.5"/>
<path fill-rule="evenodd" clip-rule="evenodd" d="M16.1953 26.6599C16.1596 26.5505 16.0523 26.5505 16.0523 26.5505L3.78962 26.9882C5.11242 29.3952 7.36475 31.2917 9.68858 30.7082C11.2974 30.307 14.944 27.6811 16.1596 26.8058C16.2311 26.7329 16.1953 26.6599 16.1953 26.6599Z" fill="#8D98C1" fill-opacity="0.5"/>
<path fill-rule="evenodd" clip-rule="evenodd" d="M16.3741 25.5294C16.4456 25.42 16.3384 25.347 16.3384 25.347C10.9399 21.627 0.500531 15.9376 0.500531 15.9376C-0.464754 18.9282 0.822293 21.3717 0.822293 21.3717C2.14509 24.2529 4.68343 25.1282 4.68343 25.1282C5.86323 25.6023 7.04302 25.6388 7.04302 25.6388C7.22177 25.6753 14.3363 25.6388 16.2669 25.6388C16.3384 25.6388 16.3741 25.5294 16.3741 25.5294Z" fill="#8D98C1" fill-opacity="0.5"/>
<path fill-rule="evenodd" clip-rule="evenodd" d="M17.1964 0.109375C16.6601 0.145846 15.2301 0.474081 15.2301 0.474081C11.9767 1.3129 11.2259 4.33996 11.2259 4.33996C10.6181 6.23643 11.2259 8.31526 11.2259 8.31526C12.2984 13.2388 17.6611 21.2988 18.8052 23.0129C18.8767 23.0858 18.9482 23.0494 18.9482 23.0494C19.0554 23.0129 19.0554 22.9035 19.0554 22.9035C20.8073 4.88702 17.1964 0.109375 17.1964 0.109375Z" fill="#8D98C1" fill-opacity="0.5"/>
<path fill-rule="evenodd" clip-rule="evenodd" d="M21.272 23.0859C21.3793 23.1223 21.4508 23.0129 21.4508 23.0129C22.6306 21.2623 27.9218 13.2388 29.0301 8.35173C29.0301 8.35173 29.6021 5.98114 29.0658 4.37644C29.0658 4.37644 28.2793 1.3129 25.0259 0.510552C25.0259 0.510552 24.0964 0.255257 23.0954 0.109375C23.0954 0.109375 19.4487 4.88702 21.2363 22.94C21.1648 23.0494 21.272 23.0859 21.272 23.0859Z" fill="#8D98C1" fill-opacity="0.5"/>
<path fill-rule="evenodd" clip-rule="evenodd" d="M24.1679 26.5505C24.1679 26.5505 24.0606 26.5505 24.0249 26.6599C24.0249 26.6599 23.9891 26.7694 24.0606 26.8423C25.2404 27.7176 28.8155 30.2341 30.5316 30.7447C30.5316 30.7447 33.7135 31.8388 36.4663 27.0247L24.1679 26.5505Z" fill="#8D98C1" fill-opacity="0.5"/>
<path fill-rule="evenodd" clip-rule="evenodd" d="M39.7197 15.9011C39.7197 15.9011 29.2803 21.627 23.8819 25.347C23.8819 25.347 23.7746 25.42 23.8104 25.5294C23.8104 25.5294 23.8462 25.6388 23.9534 25.6388C25.884 25.6388 33.213 25.6388 33.3917 25.6023C33.3917 25.6023 34.3213 25.5658 35.5011 25.0917C35.5011 25.0917 38.1109 24.2529 39.4337 21.2258C39.4695 21.2258 40.6493 18.7823 39.7197 15.9011Z" fill="#8D98C1" fill-opacity="0.5"/>
<path fill-rule="evenodd" clip-rule="evenodd" d="M22.9166 24.0705C22.9166 24.0705 22.9881 24.1435 23.0954 24.0705C24.8472 23.1952 32.1762 19.3658 35.215 16.3752C35.215 16.3752 37.1456 14.807 37.2529 12.2905C37.4674 8.78934 33.9995 5.54346 33.9995 5.54346C33.9995 5.54346 27.6 13.4576 22.9166 23.8882C22.8808 23.8882 22.8093 23.9976 22.9166 24.0705Z" fill="#8D98C1" fill-opacity="0.5"/>
<path fill-rule="evenodd" clip-rule="evenodd" d="M31.7114 14.6611C32.8555 14.6611 32.8555 12.8376 31.7114 12.8376C30.5674 12.8376 30.5674 14.6611 31.7114 14.6611Z" fill="#8D98C1" fill-opacity="0.5"/>
</svg>