<svg width="163" height="31" viewBox="0 0 163 31" fill="none" xmlns="http://www.w3.org/2000/svg">
<g clipPath="url(#clip0)">
<path d="M36.1088 29.2778C31.3308 26.851 30.0776 24.346 29.7643 23.7197C30.1559 14.4823 29.7643 3.91414 29.5293 2.58333C29.3726 1.64394 28.6677 0.939394 27.8061 0.782828C23.5764 0.234848 19.2684 0 14.9603 0C10.6523 0 6.34429 0.234848 2.11459 0.782828C1.17466 0.939394 0.469709 1.64394 0.391382 2.58333C0.234726 4.07071 -0.313568 17.3788 0.391382 27.2424C0.469709 28.1818 1.25299 28.8864 2.19292 28.9646C3.68115 29.1212 5.2477 29.2778 6.73593 29.4343C9.4774 29.6692 12.2189 29.7475 14.9603 29.7475C17.7018 29.7475 20.4433 29.6692 23.1847 29.4343C23.4981 29.4343 23.8114 29.3561 24.1247 29.3561C24.203 29.3561 24.203 29.4343 24.2813 29.4343C29.1377 31.7828 34.0723 30.9217 35.9522 30.2955C36.4221 30.1389 36.5005 29.5126 36.1088 29.2778Z" fill="#8D98C1" fillOpacity="0.5"/>
<path d="M14.9606 23.0151C11.5925 23.0151 8.53772 21.2929 6.73618 18.3964C6.34454 17.8485 6.57952 17.0656 7.12782 16.6742C7.67611 16.2828 8.45939 16.5177 8.85103 17.0656C10.1826 19.1793 12.4541 20.5101 14.9606 20.5101C17.4671 20.5101 19.7386 19.2576 21.0702 17.0656C21.4618 16.5177 22.1667 16.2828 22.7934 16.6742C23.3417 17.0656 23.5766 17.7702 23.185 18.3964C21.3835 21.2929 18.3287 23.0151 14.9606 23.0151Z" fill="white"/>
<path d="M8.45937 9.62878H10.8875C11.5142 9.62878 12.0624 10.1768 12.0624 10.8813C12.0624 11.5859 11.5142 12.1338 10.8875 12.1338H8.45937C7.83275 12.1338 7.28445 11.5859 7.28445 10.8813C7.36278 10.1768 7.83275 9.62878 8.45937 9.62878Z" fill="white"/>
<path d="M20.8352 12.5252C21.7436 12.5252 22.4801 11.7892 22.4801 10.8813C22.4801 9.97338 21.7436 9.23737 20.8352 9.23737C19.9267 9.23737 19.1903 9.97338 19.1903 10.8813C19.1903 11.7892 19.9267 12.5252 20.8352 12.5252Z" fill="white"/>
<path d="M67.7535 10.0201C64.3854 10.0201 61.7222 12.76 61.7222 16.0479C61.7222 19.4141 64.4637 22.0757 67.7535 22.0757C71.0432 22.0757 73.7847 19.3358 73.7847 16.0479C73.863 12.76 71.1216 10.0201 67.7535 10.0201ZM67.7535 19.7272C65.7953 19.7272 64.1504 18.0833 64.1504 16.1262C64.1504 14.1691 65.7953 12.5252 67.7535 12.5252C69.7117 12.5252 71.3565 14.1691 71.3565 16.1262C71.3565 18.0833 69.79 19.7272 67.7535 19.7272Z" fill="#8D98C1" fillOpacity="0.5"/>
<path d="M106.682 10.0201C103.314 10.0201 100.651 12.76 100.651 16.0479C100.651 19.4141 103.393 22.0757 106.682 22.0757C110.05 22.0757 112.714 19.3358 112.714 16.0479C112.714 12.76 109.972 10.0201 106.682 10.0201ZM106.682 19.7272C104.724 19.7272 103.079 18.0833 103.079 16.1262C103.079 14.1691 104.724 12.5252 106.682 12.5252C108.641 12.5252 110.285 14.1691 110.285 16.1262C110.285 18.0833 108.641 19.7272 106.682 19.7272Z" fill="#8D98C1" fillOpacity="0.5"/>
<path d="M58.6674 7.202C58.1192 7.04543 57.5709 7.28028 57.2575 7.67169L52.5579 14.6389L47.5449 7.59341C47.2316 7.12371 46.6833 6.96715 46.135 7.12371C45.665 7.28028 45.2734 7.74998 45.2734 8.29796V20.8232C45.2734 21.5278 45.8217 22.0757 46.5267 22.0757C47.2316 22.0757 47.7799 21.5278 47.7799 20.8232V12.2121L51.618 17.5353C51.8529 17.8485 52.2446 18.0833 52.6362 18.0833C53.0278 18.0833 53.4195 17.8485 53.6545 17.5353L57.1009 12.4469V20.9798C57.1009 21.6843 57.6492 22.2323 58.3541 22.2323C59.0591 22.2323 59.6074 21.6843 59.6074 20.9798V8.45452C59.5291 7.82826 59.1374 7.35856 58.6674 7.202Z" fill="#8D98C1" fillOpacity="0.5"/>
<path d="M81.7741 10.0202C80.4425 10.0202 79.1893 10.4899 78.171 11.1944V6.96712C78.171 6.26258 77.6227 5.7146 76.9178 5.7146C76.2128 5.7146 75.6646 6.26258 75.6646 6.96712V20.9797C75.6646 21.6843 76.2128 22.2323 76.9178 22.2323C77.6227 22.2323 78.0927 21.6843 78.171 21.058C79.1893 21.8409 80.4425 22.2323 81.7741 22.2323C85.1422 22.2323 87.8054 19.4924 87.8054 16.2045C87.8054 12.7601 85.0639 10.0202 81.7741 10.0202ZM81.7741 19.7272C79.8159 19.7272 78.171 18.0833 78.171 16.1262C78.171 14.1691 79.8159 12.5252 81.7741 12.5252C83.7323 12.5252 85.3772 14.1691 85.3772 16.1262C85.3772 18.0833 83.7323 19.7272 81.7741 19.7272Z" fill="#8D98C1" fillOpacity="0.5"/>
<path d="M96.8914 5.7146C96.1864 5.7146 95.6381 6.26258 95.6381 6.96712V20.9797C95.6381 21.6843 96.1864 22.2323 96.8914 22.2323C97.5963 22.2323 98.1446 21.6843 98.1446 20.9797V6.96712C98.1446 6.26258 97.5963 5.7146 96.8914 5.7146Z" fill="#8D98C1" fillOpacity="0.5"/>
<path d="M129.867 5.7146C129.162 5.7146 128.614 6.26258 128.614 6.96712V20.9797C128.614 21.6843 129.162 22.2323 129.867 22.2323C130.572 22.2323 131.121 21.6843 131.121 20.9797V6.96712C131.121 6.26258 130.572 5.7146 129.867 5.7146Z" fill="#8D98C1" fillOpacity="0.5"/>
<path d="M91.4084 10.0201C90.7035 10.0201 90.1552 10.5681 90.1552 11.2727V20.9015C90.1552 21.606 90.7035 22.154 91.4084 22.154C92.1134 22.154 92.6617 21.606 92.6617 20.9015V11.2727C92.5833 10.5681 92.035 10.0201 91.4084 10.0201Z" fill="#8D98C1" fillOpacity="0.5"/>
<path d="M136.525 6.65397C136.525 6.57569 136.447 6.49741 136.369 6.41912C136.369 6.34084 136.29 6.26256 136.212 6.26256C136.134 6.18428 136.055 6.10599 135.977 6.10599C135.899 6.02771 135.82 6.02771 135.742 5.94943C135.664 5.94943 135.585 5.87115 135.507 5.87115C135.037 5.79286 134.567 5.94943 134.254 6.26256C134.175 6.34084 134.097 6.41913 134.097 6.49741C134.019 6.57569 134.019 6.65397 133.94 6.73226C133.94 6.81054 133.862 6.88882 133.862 6.9671C133.862 7.04539 133.862 7.12367 133.862 7.28024C133.862 7.67165 134.019 7.98478 134.254 8.29791C134.489 8.53276 134.88 8.68933 135.272 8.68933C135.35 8.68933 135.429 8.68933 135.585 8.68933C135.664 8.68933 135.742 8.61104 135.82 8.61104C135.899 8.61104 135.977 8.53276 136.055 8.45448C136.134 8.3762 136.212 8.3762 136.29 8.29791C136.525 8.06306 136.682 7.67165 136.682 7.28024C136.682 7.20195 136.682 7.12367 136.682 6.9671C136.604 6.88882 136.525 6.73226 136.525 6.65397Z" fill="#8D98C1" fillOpacity="0.5"/>
<path d="M92.6617 6.65397C92.6617 6.57569 92.5834 6.49741 92.505 6.41912C92.505 6.34084 92.4267 6.26256 92.3484 6.26256C92.27 6.18428 92.1917 6.10599 92.1134 6.10599C92.0351 6.02771 91.9567 6.02771 91.8784 5.94943C91.8001 5.94943 91.7218 5.87115 91.6434 5.87115C91.1735 5.79286 90.7035 5.94943 90.3902 6.26256C90.3118 6.34084 90.2335 6.41913 90.2335 6.49741C90.1552 6.57569 90.1552 6.65397 90.0769 6.73226C90.0769 6.81054 89.9985 6.88882 89.9985 6.9671C89.9985 7.04539 89.9985 7.12367 89.9985 7.28024C89.9985 7.67165 90.1552 7.98478 90.3902 8.29791C90.6252 8.53276 91.0168 8.68933 91.4084 8.68933C91.4868 8.68933 91.5651 8.68933 91.7218 8.68933C91.8001 8.68933 91.8784 8.61104 91.9567 8.61104C92.0351 8.61104 92.1134 8.53276 92.1917 8.45448C92.27 8.3762 92.3484 8.3762 92.4267 8.29791C92.6617 8.06306 92.8183 7.67165 92.8183 7.28024C92.8183 7.20195 92.8183 7.12367 92.8183 6.9671C92.74 6.88882 92.74 6.73226 92.6617 6.65397Z" fill="#8D98C1" fillOpacity="0.5"/>
<path d="M135.194 10.0201C134.489 10.0201 133.94 10.5681 133.94 11.2727V20.9015C133.94 21.606 134.489 22.154 135.194 22.154C135.899 22.154 136.447 21.606 136.447 20.9015V11.2727C136.447 10.5681 135.899 10.0201 135.194 10.0201Z" fill="#8D98C1" fillOpacity="0.5"/>
<path d="M144.358 10.0201C141.382 10.0201 139.032 12.4469 139.032 15.3434V20.9015C139.032 21.606 139.58 22.154 140.285 22.154C140.99 22.154 141.538 21.606 141.538 20.9015V15.3434C141.538 13.7777 142.87 12.4469 144.436 12.4469C146.003 12.4469 147.334 13.7777 147.334 15.3434V20.9015C147.334 21.606 147.883 22.154 148.588 22.154C149.293 22.154 149.841 21.606 149.841 20.9015V15.3434C149.763 12.4469 147.334 10.0201 144.358 10.0201Z" fill="#8D98C1" fillOpacity="0.5"/>
<path d="M120.233 10.0201C117.257 10.0201 114.907 12.4469 114.907 15.3434V20.9015C114.907 21.606 115.455 22.154 116.16 22.154C116.865 22.154 117.413 21.606 117.413 20.9015V15.3434C117.413 13.7777 118.745 12.4469 120.311 12.4469C121.878 12.4469 123.21 13.7777 123.21 15.3434V20.9015C123.21 21.606 123.758 22.154 124.463 22.154C125.168 22.154 125.716 21.606 125.716 20.9015V15.3434C125.559 12.4469 123.21 10.0201 120.233 10.0201Z" fill="#8D98C1" fillOpacity="0.5"/>
<path d="M157.439 10.0201C153.914 10.0201 151.407 12.6035 151.407 16.0479C151.407 19.4141 154.149 22.0757 157.439 22.0757C158.692 22.0757 159.867 21.6843 160.885 21.058C161.433 20.6666 161.59 19.8838 161.198 19.3358C160.807 18.7878 160.023 18.6313 159.475 19.0227C158.849 19.4141 158.144 19.6489 157.439 19.6489C155.872 19.6489 154.619 18.6313 154.071 17.3004H161.747C162.452 17.3004 163 16.7525 163 16.0479C163 15.9696 163 15.9696 163 15.8914C163 15.8131 163 15.8131 163 15.7348C163 12.0555 160.18 10.0201 157.439 10.0201ZM154.071 14.8737C154.541 13.3863 155.715 12.5252 157.517 12.5252C158.535 12.5252 160.023 13.1515 160.415 14.8737H154.071Z" fill="#8D98C1" fillOpacity="0.5"/>
</g>
<defs>
<clipPath id="clip0">
<rect width="163" height="31" fill="white"/>
</clipPath>
</defs>
</svg>
