<svg width="30" height="30" viewBox="0 0 30 30" fill="none" xmlns="http://www.w3.org/2000/svg">
<rect width="30" height="30" rx="15" fill="white"/>
<path d="M20.9852 14.913L18.2508 14.0205C18.1695 13.9935 18.0813 13.9935 17.9992 14.0205L15.2648 14.913C15.1063 14.9647 15 15.1072 15 15.2677V17.277C15 19.7295 17.8508 20.9205 17.9727 20.9707C18.0211 20.9902 18.0734 21 18.125 21C18.1766 21 18.2289 20.9902 18.2773 20.97C18.3992 20.9205 21.25 19.7287 21.25 17.277V15.2677C21.25 15.1072 21.1437 14.9647 20.9852 14.913ZM19.8367 16.809L18.4047 18.5587C18.2219 18.7822 17.8805 18.8145 17.6562 18.6292L16.7445 17.8792C16.5258 17.6992 16.5 17.3842 16.6883 17.1742C16.8758 16.965 17.2047 16.9402 17.4219 17.1202L17.9211 17.5305L19.018 16.191C19.1953 15.9742 19.5227 15.936 19.7492 16.107C19.975 16.2772 20.0148 16.5915 19.8367 16.809Z" fill="#0000FE"/>
<path d="M18.6461 9H10.3125C9.44922 9 8.75 9.67125 8.75 10.5C8.75 11.3288 9.44922 12 10.3125 12H18.6461C19.5094 12 20.2086 11.3288 20.2086 10.5C20.2086 9.67125 19.5086 9 18.6461 9ZM10.3125 11.0002C10.025 11.0002 9.79141 10.776 9.79141 10.5C9.79141 10.224 10.025 9.99975 10.3125 9.99975C10.6 9.99975 10.8336 10.2233 10.8336 10.5C10.8336 10.776 10.6 11.0002 10.3125 11.0002ZM12.3961 11.0002C12.1078 11.0002 11.875 10.776 11.875 10.5C11.875 10.224 12.1078 9.99975 12.3961 9.99975C12.6836 9.99975 12.9172 10.2233 12.9172 10.5C12.9164 10.776 12.6836 11.0002 12.3961 11.0002Z" fill="#83A5FD"/>
<path d="M10.3125 12.9998C9.44766 12.9998 8.75 13.6695 8.75 14.4998C8.75 15.33 9.44766 15.9998 10.3125 15.9998H13.9586V15.27C13.9586 14.6798 14.3492 14.1548 14.9328 13.965L17.6617 13.0748C17.8125 13.0245 17.9688 12.9998 18.125 12.9998H10.3125ZM10.3125 15C10.0258 15 9.79141 14.775 9.79141 14.4998C9.79141 14.2245 10.0258 13.9995 10.3125 13.9995C10.5992 13.9995 10.8336 14.2245 10.8336 14.4998C10.8336 14.775 10.5992 15 10.3125 15ZM12.3961 15C12.1094 15 11.875 14.775 11.875 14.4998C11.875 14.2245 12.1094 13.9995 12.3961 13.9995C12.6828 13.9995 12.9172 14.2245 12.9172 14.4998C12.9172 14.775 12.682 15 12.3961 15Z" fill="#83A5FD"/>
<path d="M13.9586 17.2748V16.9995H10.3125C9.44766 16.9995 8.75 17.6693 8.75 18.4995C8.75 19.3298 9.44766 19.9995 10.3125 19.9995H14.9844C14.3852 19.2698 13.9586 18.3548 13.9586 17.2748ZM10.3125 18.9998C10.0258 18.9998 9.79141 18.7748 9.79141 18.4995C9.79141 18.225 10.0258 18 10.3125 18C10.5992 18 10.8336 18.225 10.8336 18.5003C10.8336 18.7748 10.5992 18.9998 10.3125 18.9998ZM12.3961 18.9998C12.1094 18.9998 11.875 18.7748 11.875 18.4995C11.875 18.225 12.1094 18 12.3961 18C12.6828 18 12.9172 18.225 12.9172 18.5003C12.9164 18.7748 12.682 18.9998 12.3961 18.9998Z" fill="#83A5FD"/>
</svg>
