<svg width="30" height="30" viewBox="0 0 30 30" fill="none" xmlns="http://www.w3.org/2000/svg">
<rect width="30" height="30" rx="15" fill="white"/>
<path d="M18.6461 8.81885H10.3125C9.44922 8.81885 8.75 9.51038 8.75 10.3642C8.75 11.218 9.44922 11.9095 10.3125 11.9095H18.6461C19.5094 11.9095 20.2086 11.218 20.2086 10.3642C20.2086 9.51038 19.5086 8.81885 18.6461 8.81885ZM10.3125 10.8795C10.025 10.8795 9.79141 10.6485 9.79141 10.3642C9.79141 10.0798 10.025 9.84881 10.3125 9.84881C10.6 9.84881 10.8336 10.0791 10.8336 10.3642C10.8336 10.6485 10.6 10.8795 10.3125 10.8795ZM12.3961 10.8795C12.1078 10.8795 11.875 10.6485 11.875 10.3642C11.875 10.0798 12.1078 9.84881 12.3961 9.84881C12.6836 9.84881 12.9172 10.0791 12.9172 10.3642C12.9164 10.6485 12.6836 10.8795 12.3961 10.8795Z" fill="#83A5FD"/>
<path d="M18.6461 12.9395H10.3125C9.44766 12.9395 8.75 13.6294 8.75 14.4848C8.75 15.3401 9.44766 16.0301 10.3125 16.0301H13.8336C14.5258 14.5111 16.0727 13.4548 17.8648 13.4548C18.6984 13.4548 19.4844 13.6866 20.1516 14.0884C19.9789 13.4239 19.3695 12.9395 18.6461 12.9395ZM10.3125 15.0001C10.0258 15.0001 9.79141 14.7684 9.79141 14.4848C9.79141 14.2012 10.0258 13.9694 10.3125 13.9694C10.5992 13.9694 10.8336 14.2012 10.8336 14.4848C10.8336 14.7684 10.5992 15.0001 10.3125 15.0001ZM12.3961 15.0001C12.1094 15.0001 11.875 14.7684 11.875 14.4848C11.875 14.2012 12.1094 13.9694 12.3961 13.9694C12.6828 13.9694 12.9172 14.2012 12.9172 14.4848C12.9172 14.7684 12.682 15.0001 12.3961 15.0001Z" fill="#83A5FD"/>
<path d="M13.4375 17.8335C13.4375 17.5707 13.4633 17.3135 13.5102 17.0608H10.3125C9.44766 17.0608 8.75 17.7508 8.75 18.6061C8.75 19.4615 9.44766 20.1515 10.3125 20.1515H14.1094C13.682 19.4816 13.4375 18.6834 13.4375 17.8335ZM10.3125 19.1207C10.0258 19.1207 9.79141 18.8889 9.79141 18.6053C9.79141 18.3226 10.0258 18.0908 10.3125 18.0908C10.5992 18.0908 10.8336 18.3226 10.8336 18.6061C10.8336 18.8889 10.5992 19.1207 10.3125 19.1207ZM12.3961 19.1207C12.1094 19.1207 11.875 18.8889 11.875 18.6053C11.875 18.3226 12.1094 18.0908 12.3961 18.0908C12.6828 18.0908 12.9172 18.3226 12.9172 18.6061C12.9164 18.8889 12.682 19.1207 12.3961 19.1207Z" fill="#83A5FD"/>
<path d="M17.8649 14.4846C15.9985 14.4846 14.4797 15.9867 14.4797 17.8326C14.4797 19.6785 15.9977 21.1813 17.8649 21.1813C19.7321 21.1813 21.2501 19.6792 21.2501 17.8333C21.2501 15.9875 19.7313 14.4846 17.8649 14.4846ZM19.5586 17.0136L17.736 19.0742C17.5376 19.2983 17.1891 19.3099 16.9758 19.099L15.9344 18.069C15.7313 17.8681 15.7313 17.5421 15.9344 17.3404C16.1375 17.1387 16.4672 17.1395 16.6711 17.3404L17.3188 17.9809L18.7751 16.3344C18.9649 16.1211 19.2938 16.0987 19.5102 16.2857C19.7266 16.4742 19.7485 16.7988 19.5586 17.0136Z" fill="#0000FE"/>
</svg>
