<svg width="46" height="46" viewBox="0 0 46 46" fill="none" xmlns="http://www.w3.org/2000/svg">
<rect width="46" height="46" rx="23" fill="white"/>
<path d="M23.9979 31.6878H22.0009C21.4499 31.6878 21.0031 31.2447 21.0031 30.7009V27.3445H19.2062C18.9666 27.3445 18.7498 27.2035 18.6551 26.9855C18.5605 26.7675 18.6072 26.5152 18.7713 26.3434L22.5651 22.3946C22.7916 22.1588 23.2072 22.1588 23.4336 22.3946L27.2274 26.3434C27.3916 26.5152 27.4383 26.7675 27.3436 26.9855C27.249 27.2035 27.0322 27.3445 26.7926 27.3445H24.9957V30.7009C24.9969 31.2459 24.5489 31.6878 23.9979 31.6878Z" fill="#0000FE"/>
<path d="M28.3295 17.4128C27.2813 15.5183 25.2269 14.3123 23 14.3123C20.1693 14.3123 17.7136 16.26 17.093 18.9162C15.029 19.1306 13.4166 20.845 13.4166 22.9207C13.4166 24.9703 14.9943 26.6479 17.02 26.8979C16.9792 26.3031 17.1829 25.7048 17.6129 25.2558L21.4067 21.3059C22.2237 20.4564 23.775 20.4564 24.5908 21.3059L28.3846 25.2558C28.7859 25.674 28.9895 26.2202 28.9836 26.7735C31.056 26.2143 32.5833 24.359 32.5833 22.1577C32.5833 19.7349 30.7409 17.7149 28.3295 17.4128Z" fill="#83A5FD"/>
</svg>
