<svg width="199" height="170" viewBox="0 0 199 170" fill="none" xmlns="http://www.w3.org/2000/svg">
<path d="M23.3961 67.4112C20.878 67.4112 18.4616 67.7952 16.0565 68.1452C16.8356 65.5255 17.6373 62.8607 18.9246 60.4669C20.2118 56.989 22.2217 53.9742 24.2204 50.9367C25.8915 47.6508 28.8386 45.4264 31.0066 42.6147C33.2763 39.8822 36.3702 38.0642 38.8205 35.7946C41.2256 33.4233 44.376 32.2377 46.8827 30.5665C49.5024 29.0647 51.7833 27.4049 54.2223 26.6145L60.3085 24.1077L65.6608 21.8832L60.1843 0L53.4432 1.626C51.2865 2.168 48.6555 2.80033 45.6632 3.55687C42.6032 4.12145 39.3399 5.66841 35.704 7.07987C32.1132 8.68329 27.9579 9.76729 24.0961 12.3418C20.2118 14.8034 15.729 16.8585 11.7769 20.1556C7.94907 23.5544 3.33078 26.5015 -0.0793076 30.8262C-3.80556 34.8687 -7.48664 39.1143 -10.3434 43.9472C-13.6519 48.5542 -15.8989 53.6128 -18.2702 58.615C-20.4156 63.6172 -22.1432 68.7324 -23.5547 73.7007C-26.2308 83.66 -27.4277 93.1224 -27.8907 101.219C-28.2746 109.326 -28.0488 116.067 -27.5745 120.945C-27.4051 123.249 -27.089 125.484 -26.8631 127.031L-26.5808 128.928L-26.2873 128.861C-24.2789 138.242 -19.6556 146.863 -12.9522 153.727C-6.24881 160.59 2.26079 165.416 11.5922 167.645C20.9236 169.875 30.6955 169.417 39.7775 166.324C48.8595 163.232 56.8804 157.632 62.9125 150.171C68.9445 142.711 72.7412 133.695 73.8632 124.167C74.9853 114.638 73.3869 104.987 69.253 96.3294C65.1191 87.6717 58.6186 80.3613 50.5034 75.2437C42.3883 70.1261 32.9901 67.4106 23.3961 67.4112ZM147.604 67.4112C145.086 67.4112 142.67 67.7952 140.265 68.1452C141.044 65.5255 141.846 62.8607 143.133 60.4669C144.42 56.989 146.43 53.9742 148.429 50.9367C150.1 47.6508 153.047 45.4264 155.215 42.6147C157.485 39.8822 160.579 38.0642 163.029 35.7946C165.434 33.4233 168.584 32.2377 171.091 30.5665C173.711 29.0647 175.992 27.4049 178.431 26.6145L184.517 24.1077L189.869 21.8832L184.393 0L177.652 1.626C175.495 2.168 172.864 2.80033 169.872 3.55687C166.812 4.12145 163.548 5.66841 159.912 7.07987C156.333 8.69458 152.166 9.76729 148.304 12.3531C144.42 14.8147 139.937 16.8697 135.985 20.1669C132.157 23.5657 127.539 26.5128 124.129 30.8262C120.403 34.8687 116.722 39.1143 113.865 43.9472C110.556 48.5542 108.309 53.6128 105.938 58.615C103.793 63.6172 102.065 68.7324 100.654 73.7007C97.9775 83.66 96.7806 93.1224 96.3176 101.219C95.9337 109.326 96.1596 116.067 96.6338 120.945C96.8032 123.249 97.1193 125.484 97.3452 127.031L97.6275 128.928L97.9211 128.861C99.9294 138.242 104.553 146.863 111.256 153.727C117.96 160.59 126.469 165.416 135.801 167.645C145.132 169.875 154.904 169.417 163.986 166.324C173.068 163.232 181.089 157.632 187.121 150.171C193.153 142.711 196.949 133.695 198.072 124.167C199.194 114.638 197.595 104.987 193.461 96.3294C189.327 87.6717 182.827 80.3613 174.712 75.2437C166.597 70.1261 157.198 67.4106 147.604 67.4112Z" fill="#F3F4F6"/>
</svg>
