<svg width="153" height="34" viewBox="0 0 153 34" fill="none" xmlns="http://www.w3.org/2000/svg">
<path fill-rule="evenodd" clip-rule="evenodd" d="M63.9746 18.0802H56.2453V11.2002H52.8365V28.2002H56.2453V21.3202H63.9746V28.2002H67.3834V11.2002H63.9746V18.0802Z" fill="#252729"/>
<path fill-rule="evenodd" clip-rule="evenodd" d="M83.1987 20.9202C83.1987 23.6802 81.851 25.1602 79.3539 25.1602C76.8567 25.1602 75.5091 23.6402 75.5091 20.8002V11.2002H72.1003V20.9202C72.1003 25.6802 74.7163 28.4402 79.3142 28.4402C83.9518 28.4402 86.6075 25.6402 86.6075 20.8002V11.2002H83.1987V20.9202Z" fill="#252729"/>
<path fill-rule="evenodd" clip-rule="evenodd" d="M122.677 22.8802L118.833 11.2002H116.058L112.253 22.8802L108.527 11.2402H104.88L110.747 28.2002H113.601L117.406 17.0402L121.251 28.2002H124.104L129.931 11.2402H126.403L122.677 22.8802Z" fill="#252729"/>
<path fill-rule="evenodd" clip-rule="evenodd" d="M136.075 20.8802H142.258V17.8002H136.075V14.3202H145.073V11.2402H132.706V28.2002H145.39V25.0802H136.075V20.8802Z" fill="#252729"/>
<path d="M152.841 11.2002H149.472V28.1602H152.841V11.2002Z" fill="#252729"/>
<path d="M101.075 24.6402L102.581 28.1602H106.149L98.8158 11.2802L98.7365 11.2002H95.7637L88.3516 28.1602H91.8396L93.2666 24.8802L93.3855 24.6402H101.075ZM97.2303 15.5202L99.6482 21.2002L99.8067 21.6002H94.6539L94.8124 21.2002L97.2303 15.5202Z" fill="#252729"/>
<path fill-rule="evenodd" clip-rule="evenodd" d="M19.2241 26.4C19.2241 26.4 19.3034 26.32 19.2637 26.24C14.0713 14.76 6.93653 6.04004 6.93653 6.04004C6.93653 6.04004 3.05208 9.76004 3.32954 13.48C3.48809 16.28 5.58887 17.96 5.58887 17.96C8.95804 21.28 17.1233 25.48 19.0259 26.44C19.0656 26.44 19.1448 26.48 19.2241 26.4Z" fill="#C3172D"/>
<path fill-rule="evenodd" clip-rule="evenodd" d="M17.9557 29.2401C17.9161 29.1201 17.7971 29.1201 17.7971 29.1201L4.20155 29.6001C5.66813 32.2401 8.16528 34.3201 10.7417 33.6801C12.5254 33.2401 16.5684 30.3601 17.9161 29.4001C17.9953 29.3201 17.9557 29.2401 17.9557 29.2401Z" fill="#C3172D"/>
<path fill-rule="evenodd" clip-rule="evenodd" d="M18.1539 28.0002C18.2332 27.8802 18.1143 27.8002 18.1143 27.8002C12.129 23.7202 0.554925 17.4802 0.554925 17.4802C-0.515283 20.7602 0.91166 23.4402 0.91166 23.4402C2.37824 26.6002 5.19249 27.5602 5.19249 27.5602C6.50052 28.0802 7.80855 28.1202 7.80855 28.1202C8.00674 28.1602 15.8946 28.1202 18.035 28.1202C18.1143 28.1202 18.1539 28.0002 18.1539 28.0002Z" fill="#C3172D"/>
<path fill-rule="evenodd" clip-rule="evenodd" d="M19.0655 0.120117C18.471 0.160117 16.8855 0.520117 16.8855 0.520117C13.2785 1.44012 12.4461 4.76012 12.4461 4.76012C11.7723 6.84012 12.4461 9.12012 12.4461 9.12012C13.6352 14.5201 19.5808 23.3601 20.8492 25.2401C20.9285 25.3201 21.0078 25.2801 21.0078 25.2801C21.1267 25.2401 21.1267 25.1201 21.1267 25.1201C23.0689 5.36012 19.0655 0.120117 19.0655 0.120117Z" fill="#C3172D"/>
<path fill-rule="evenodd" clip-rule="evenodd" d="M23.5842 25.3201C23.7031 25.3601 23.7824 25.2401 23.7824 25.2401C25.0904 23.3201 30.9567 14.5201 32.1855 9.16012C32.1855 9.16012 32.8197 6.56012 32.2251 4.80012C32.2251 4.80012 31.3531 1.44012 27.7461 0.560117C27.7461 0.560117 26.7155 0.280117 25.6057 0.120117C25.6057 0.120117 21.5627 5.36012 23.5446 25.1601C23.4653 25.2801 23.5842 25.3201 23.5842 25.3201Z" fill="#C3172D"/>
<path fill-rule="evenodd" clip-rule="evenodd" d="M26.7948 29.1201C26.7948 29.1201 26.6759 29.1201 26.6363 29.2401C26.6363 29.2401 26.5966 29.3601 26.6759 29.4401C27.9839 30.4001 31.9477 33.1601 33.8503 33.7201C33.8503 33.7201 37.378 34.9201 40.4301 29.6401L26.7948 29.1201Z" fill="#C3172D"/>
<path fill-rule="evenodd" clip-rule="evenodd" d="M44.0371 17.4402C44.0371 17.4402 32.463 23.7202 26.4777 27.8002C26.4777 27.8002 26.3588 27.8802 26.3984 28.0002C26.3984 28.0002 26.4381 28.1202 26.557 28.1202C28.6974 28.1202 36.8231 28.1202 37.0212 28.0802C37.0212 28.0802 38.0518 28.0402 39.3598 27.5202C39.3598 27.5202 42.2534 26.6002 43.7199 23.2802C43.7596 23.2802 45.0676 20.6002 44.0371 17.4402Z" fill="#C3172D"/>
<path fill-rule="evenodd" clip-rule="evenodd" d="M25.4075 26.4001C25.4075 26.4001 25.4868 26.4801 25.6057 26.4001C27.5479 25.4401 35.6736 21.2401 39.0427 17.9601C39.0427 17.9601 41.1832 16.2401 41.3021 13.4801C41.5399 9.64008 37.6951 6.08008 37.6951 6.08008C37.6951 6.08008 30.6 14.7601 25.4075 26.2001C25.3679 26.2001 25.2886 26.3201 25.4075 26.4001Z" fill="#C3172D"/>
<path fill-rule="evenodd" clip-rule="evenodd" d="M35.1583 16.0801C36.4267 16.0801 36.4267 14.0801 35.1583 14.0801C33.8899 14.0801 33.8899 16.0801 35.1583 16.0801Z" fill="#C3172D"/>
</svg>
