<svg xmlns="http://www.w3.org/2000/svg" width="23.772" height="15.458" viewBox="0 0 23.772 15.458"><defs><style>.a{fill:#fff;}</style></defs><path class="a" d="M743.347,23.864h-12.68V24.95h11.594v8.273H730.667v1.086h12.68Z" transform="translate(-727.102 -23.864)"/><path class="a" d="M788.824,30.985l-2.089-3.663h-3.922v9.626H789.7V31.486ZM786.1,28.408l1.309,2.3H783.9v-2.3Zm2.511,7.454H783.9V31.789h4.143l.243.139.33.188Z" transform="translate(-765.929 -26.439)"/><path class="a" d="M735.116,67.849a2.112,2.112,0,1,0,2.112,2.112A2.112,2.112,0,0,0,735.116,67.849Zm0,3.138a1.026,1.026,0,1,1,1.026-1.026A1.027,1.027,0,0,1,735.116,70.987Z" transform="translate(-728.842 -56.615)"/><path class="a" d="M781.9,67.849a2.112,2.112,0,1,0,2.112,2.112A2.112,2.112,0,0,0,781.9,67.849Zm0,3.138a1.026,1.026,0,1,1,1.026-1.026A1.027,1.027,0,0,1,781.9,70.987Z" transform="translate(-763.675 -56.615)"/><rect class="a" width="7.982" height="1.086" transform="translate(1.831 2.261)"/><rect class="a" width="7.982" height="1.086" transform="translate(0 4.453)"/><rect class="a" width="7.982" height="1.086" transform="translate(1.653 6.646)"/></svg>