<svg xmlns="http://www.w3.org/2000/svg" width="23.536" height="16.896" viewBox="0 0 23.536 16.896"><defs><style>.a{fill:#d9d9d9;}</style></defs><path class="a" d="M238.467,329.963h-4.744a2.22,2.22,0,0,0-4.24,0h-4.744s-4.9,7.721-4.9,10.43a4.9,4.9,0,1,0,9.808,0c0-2.013-2.707-6.791-4.1-9.115h3.938a2.22,2.22,0,0,0,4.24,0h3.938c-1.391,2.323-4.1,7.1-4.1,9.115a4.9,4.9,0,1,0,9.808,0C243.371,337.684,238.467,329.963,238.467,329.963Zm-13.728,2.525a35.992,35.992,0,0,1,3.489,7.248H221.25A35.993,35.993,0,0,1,224.739,332.488Zm0,11.494a3.592,3.592,0,0,1-3.525-2.931h7.051A3.593,3.593,0,0,1,224.739,343.982Zm6.864-12.457a.9.9,0,1,1,.9-.9A.906.906,0,0,1,231.6,331.525Zm10.453,8.868c0,.014,0,.028,0,.042v-.069C242.054,340.374,242.055,340.385,242.055,340.393Zm-.1-.658h-6.979a35.993,35.993,0,0,1,3.489-7.248A36.011,36.011,0,0,1,241.956,339.735Zm-3.489,4.246a3.593,3.593,0,0,1-3.526-2.931h7.051A3.593,3.593,0,0,1,238.467,343.982Z" transform="translate(-219.835 -328.401)"/></svg>