<svg xmlns="http://www.w3.org/2000/svg" width="16.153" height="16.142" viewBox="0 0 16.153 16.142"><defs><style>.a{fill:#20f800;}</style></defs><path class="a" d="M283.772,359.138a.781.781,0,0,1-.24.684l-2.274,2.257a1.279,1.279,0,0,1-.4.291,1.66,1.66,0,0,1-.487.154l-.1.008c-.057.006-.131.009-.222.009a7.883,7.883,0,0,1-1.052-.111,7.975,7.975,0,0,1-1.778-.547,14.921,14.921,0,0,1-2.386-1.308,17.794,17.794,0,0,1-2.839-2.394,18.769,18.769,0,0,1-1.984-2.257,16.153,16.153,0,0,1-1.265-1.992,10.738,10.738,0,0,1-.718-1.659,8.778,8.778,0,0,1-.325-1.282,4.213,4.213,0,0,1-.069-.847c.011-.2.018-.319.018-.342a1.647,1.647,0,0,1,.154-.487,1.287,1.287,0,0,1,.291-.4l2.274-2.274a.753.753,0,0,1,.547-.24.635.635,0,0,1,.393.128,1.181,1.181,0,0,1,.291.316l1.83,3.471a.831.831,0,0,1,.085.6,1.063,1.063,0,0,1-.291.547l-.838.838a.292.292,0,0,0-.06.111.418.418,0,0,0-.026.128,3.1,3.1,0,0,0,.308.821,7.524,7.524,0,0,0,.633,1,11.059,11.059,0,0,0,1.214,1.359,11.22,11.22,0,0,0,1.368,1.223,7.9,7.9,0,0,0,1,.641,2.63,2.63,0,0,0,.616.248l.213.043a.4.4,0,0,0,.111-.026.286.286,0,0,0,.111-.06l.975-.992a1.048,1.048,0,0,1,.718-.274.894.894,0,0,1,.462.1h.017l3.3,1.949A.862.862,0,0,1,283.772,359.138Z" transform="translate(-267.626 -346.399)"/></svg>