<svg xmlns="http://www.w3.org/2000/svg" width="13.308" height="37.695" viewBox="0 0 13.308 37.695"><path d="M239.739,363.865a6.164,6.164,0,0,0-1.516-3.716l-.183-.19c-.934-.967-2.1-2.17-2.058-3.354a3.03,3.03,0,0,1,1.181-2.018c1.884-1.717,3.6-3.721,3.4-6.737l-2.289.151c.111,1.7-.61,3.023-2.661,4.891a5.183,5.183,0,0,0-1.928,3.641c-.069,2.153,1.531,3.811,2.7,5.021l.179.185a3.732,3.732,0,0,1,.869,2.136,6.282,6.282,0,0,0-5.476,6.219v9.175a6.284,6.284,0,0,0,6.278,6.277h.753a6.284,6.284,0,0,0,6.277-6.277v-9.175A6.283,6.283,0,0,0,239.739,363.865Zm3.236,15.4a3.988,3.988,0,0,1-3.983,3.984h-.753a3.989,3.989,0,0,1-3.984-3.984v-9.175a3.988,3.988,0,0,1,3.217-3.906l0,5.4h2.294v-5.4a3.988,3.988,0,0,1,3.213,3.9Z" transform="translate(-231.961 -347.849)"/></svg>