<svg xmlns="http://www.w3.org/2000/svg" width="41.382" height="22.478" viewBox="0 0 41.382 22.478"><path d="M329.913,506.288H307.082a2.974,2.974,0,0,0-2.97,2.97v13.22a2.972,2.972,0,0,0,2.97,2.969h10.531V527h-3.828v1.768h9.425V527h-3.828v-1.55h10.531a2.972,2.972,0,0,0,2.97-2.969v-13.22A2.973,2.973,0,0,0,329.913,506.288Zm1.2,16.19a1.2,1.2,0,0,1-1.2,1.2H307.082a1.2,1.2,0,0,1-1.2-1.2v-.555h25.233Zm0-2.323H305.881v-10.9a1.2,1.2,0,0,1,1.2-1.2h22.831a1.2,1.2,0,0,1,1.2,1.2Z" transform="translate(-291.501 -506.288)"/><path d="M292.316,510.45h-5.861A2.558,2.558,0,0,0,283.9,513V524.49a2.558,2.558,0,0,0,2.556,2.554h5.861a2.558,2.558,0,0,0,2.555-2.554V513A2.558,2.558,0,0,0,292.316,510.45Zm.786,14.04a.787.787,0,0,1-.786.786h-5.861a.787.787,0,0,1-.787-.786V513a.787.787,0,0,1,.787-.786h5.861a.787.787,0,0,1,.786.786Z" transform="translate(-283.9 -507.853)"/></svg>