<svg xmlns="http://www.w3.org/2000/svg" width="33.519" height="34.567" viewBox="0 0 33.519 34.567"><path d="M557.35,266.9h-18.3a3.3,3.3,0,0,0-3.3,3.3v4.884h-5.336a3.3,3.3,0,0,0-3.3,3.294v19.8a3.3,3.3,0,0,0,3.3,3.3H540.4a3.3,3.3,0,0,0,3.3-3.3v-.812H557.35a3.3,3.3,0,0,0,3.294-3.294v-23.87A3.3,3.3,0,0,0,557.35,266.9Zm-18.3,1.962h18.3a1.334,1.334,0,0,1,1.333,1.333v1.153H537.719v-1.153A1.335,1.335,0,0,1,539.052,268.861Zm-1.333,4.448h20.964v17.668H543.7v-12.6a3.3,3.3,0,0,0-3.3-3.294h-2.683ZM529.088,295.4V281.075h12.647V295.4Zm1.333-18.356H540.4a1.334,1.334,0,0,1,1.333,1.332v.739H529.088v-.739A1.334,1.334,0,0,1,530.421,277.041ZM540.4,299.5h-9.981a1.336,1.336,0,0,1-1.333-1.333v-.812h5.063a1.326,1.326,0,1,0,2.521,0h5.063v.812A1.335,1.335,0,0,1,540.4,299.5ZM557.35,295.4H543.7v-2.457h14.986v1.125A1.334,1.334,0,0,1,557.35,295.4Z" transform="translate(-527.126 -266.899)"/></svg>