<svg xmlns="http://www.w3.org/2000/svg" width="19.38" height="30" viewBox="0 0 19.38 30"><defs><style>.a{fill:#20f800;}</style></defs><path class="a" d="M108.616,248.191a9.7,9.7,0,0,0-9.69,9.69c0,4.91,7.83,17.381,8.723,18.787l.967,1.523.967-1.523c.892-1.406,8.723-13.877,8.723-18.787A9.7,9.7,0,0,0,108.616,248.191Zm0,25.689c-2.706-4.45-7.4-12.827-7.4-16a7.4,7.4,0,1,1,14.8,0C116.015,261.051,111.322,269.429,108.616,273.88Z" transform="translate(-98.926 -248.191)"/><circle class="a" cx="3.235" cy="3.235" r="3.235" transform="translate(6.685 5.741)"/></svg>