<svg xmlns="http://www.w3.org/2000/svg" width="19.989" height="16.952" viewBox="0 0 19.989 16.952"><defs><style>.a{fill:#d9d9d9;}</style></defs><path class="a" d="M369.847,198.115l-8.2-7.528a5.331,5.331,0,0,1,0-7.972,5.767,5.767,0,0,1,7.65,0l.554.508.553-.508a5.769,5.769,0,0,1,7.65,0h0a5.333,5.333,0,0,1,0,7.972Zm-4.379-15.069a3.761,3.761,0,0,0-2.544.965,3.438,3.438,0,0,0,0,5.18l6.923,6.352,6.922-6.352a3.438,3.438,0,0,0,0-5.179h0a3.836,3.836,0,0,0-5.088,0l-1.834,1.683-1.835-1.683A3.758,3.758,0,0,0,365.468,183.046Z" transform="translate(-359.852 -181.163)"/></svg>