<svg xmlns="http://www.w3.org/2000/svg" width="26.571" height="26.574" viewBox="0 0 26.571 26.574"><defs><style>.a{fill:#fff;}</style></defs><path class="a" d="M75.072,373.331a4.446,4.446,0,1,1,0,.013v-.013m-2.394,0a6.824,6.824,0,1,0,6.834-6.815h-.019a6.821,6.821,0,0,0-6.814,6.815M85,366.246a1.59,1.59,0,1,0,1.59-1.59h0a1.59,1.59,0,0,0-1.59,1.59m-10.866,17.9a7.307,7.307,0,0,1-2.468-.458,4.155,4.155,0,0,1-1.53-.992,4.088,4.088,0,0,1-.992-1.53,7.309,7.309,0,0,1-.464-2.455c-.064-1.4-.076-1.819-.076-5.368s0-3.969.076-5.371a7.424,7.424,0,0,1,.458-2.468,4.4,4.4,0,0,1,2.522-2.522,7.4,7.4,0,0,1,2.474-.461c1.4-.064,1.822-.076,5.368-.076s3.968,0,5.371.076a7.386,7.386,0,0,1,2.464.458,4.414,4.414,0,0,1,2.525,2.522,7.343,7.343,0,0,1,.442,2.471c.067,1.4.08,1.822.08,5.371s0,3.968-.08,5.368a7.314,7.314,0,0,1-.455,2.468,4.391,4.391,0,0,1-2.525,2.522,7.314,7.314,0,0,1-2.452.445c-1.4.064-1.822.076-5.371.076s-3.968,0-5.368-.076m-.111-24.008a9.669,9.669,0,0,0-3.224.617,6.8,6.8,0,0,0-3.886,3.886,9.753,9.753,0,0,0-.617,3.224c-.067,1.418-.079,1.87-.079,5.479s0,4.061.079,5.476a9.769,9.769,0,0,0,.617,3.228A6.8,6.8,0,0,0,70.8,385.93a9.753,9.753,0,0,0,3.224.617c1.418.064,1.87.08,5.479.08s4.061,0,5.479-.08a9.768,9.768,0,0,0,3.224-.617,6.8,6.8,0,0,0,3.886-3.886,9.77,9.77,0,0,0,.617-3.228c.064-1.415.079-1.867.079-5.476s0-4.061-.079-5.479a9.737,9.737,0,0,0-.617-3.224,6.521,6.521,0,0,0-1.533-2.353,6.439,6.439,0,0,0-2.353-1.533,9.685,9.685,0,0,0-3.224-.617c-1.418-.067-1.87-.083-5.479-.083s-4.061.016-5.479.083" transform="translate(-66.216 -360.052)"/></svg>