<svg xmlns="http://www.w3.org/2000/svg" width="34.667" height="21.251" viewBox="0 0 34.667 21.251"><path d="M325.647,468.491l.295-.254v-3.693H291.275l0,3.691.287.253a2.549,2.549,0,0,1,.854,1.674,3.007,3.007,0,0,1-.873,1.865l-.272.252v9.531h0V485.8h3.091l1.6-1.045L297.7,485.8h3.874l1.4-1,1.352,1h2.647l1.626-3.036,1.626,3.036h2.648l1.352-1,1.4,1h3.874l1.736-1.045,1.6,1.045h3.091V472.279l-.273-.252a3,3,0,0,1-.873-1.865A2.546,2.546,0,0,1,325.647,468.491ZM305.966,484.1h-1.073L303,482.7l-1.964,1.4h-2.861l-2.244-1.349-2.071,1.349h-.89V481.81h14.22Zm18.279,0h-.89l-2.071-1.349L319.04,484.1h-2.861l-1.964-1.4-1.892,1.4H311.25l-1.225-2.289h14.219Zm-14.219-3.986H292.972v-7.13a4.573,4.573,0,0,0,1.145-2.788,4.005,4.005,0,0,0-1.145-2.7v-1.254h31.273v1.254a4,4,0,0,0-1.145,2.7,4.572,4.572,0,0,0,1.145,2.788v7.13Z" transform="translate(-291.274 -464.544)"/><path d="M298.5,480.665h5.325V470.351H298.5Zm1.7-8.617h1.931v6.921h-1.931Z" transform="translate(-294.173 -466.875)"/><path d="M309.97,480.665h5.325V470.351H309.97Zm1.7-8.617H313.6v6.921h-1.931Z" transform="translate(-298.778 -466.875)"/><path d="M321.484,480.665h5.325V470.351h-5.325Zm1.7-8.617h1.931v6.921h-1.931Z" transform="translate(-303.399 -466.875)"/><path d="M333,480.665h5.325V470.351H333Zm1.7-8.617h1.931v6.921H334.7Z" transform="translate(-308.021 -466.875)"/></svg>