<svg xmlns="http://www.w3.org/2000/svg" width="26.347" height="22.344" viewBox="0 0 26.347 22.344"><defs><style>.a{fill:#00fd1e;}</style></defs><path class="a" d="M373.027,203.507l-10.814-9.923a7.027,7.027,0,0,1,0-10.508,7.6,7.6,0,0,1,10.084,0l.73.669.729-.669a7.6,7.6,0,0,1,10.084,0h0a7.029,7.029,0,0,1,0,10.507Zm-5.772-19.862a4.957,4.957,0,0,0-3.354,1.272,4.531,4.531,0,0,0,0,6.827l9.125,8.372,9.124-8.373a4.532,4.532,0,0,0,0-6.827h0a5.056,5.056,0,0,0-6.706,0l-2.418,2.218-2.419-2.218A4.954,4.954,0,0,0,367.255,183.645Z" transform="translate(-359.852 -181.163)"/></svg>