<svg xmlns="http://www.w3.org/2000/svg" width="24.745" height="28.475" viewBox="0 0 24.745 28.475"><defs><style>.a{fill:#fff;}</style></defs><rect class="a" width="33.076" height="2.67" transform="translate(1.525 26.869) rotate(-54.326)"/><path class="a" d="M309.609,290.031a5.873,5.873,0,1,0-5.873-5.873A5.88,5.88,0,0,0,309.609,290.031Zm0-9.075a3.2,3.2,0,1,1-3.2,3.2A3.206,3.206,0,0,1,309.609,280.956Z" transform="translate(-303.736 -277.822)"/><path class="a" d="M323.407,295.551a5.873,5.873,0,1,0,5.873,5.874A5.88,5.88,0,0,0,323.407,295.551Zm0,9.076a3.2,3.2,0,1,1,3.2-3.2A3.206,3.206,0,0,1,323.407,304.627Z" transform="translate(-304.535 -278.822)"/></svg>